solid OpenSCAD_Model
  facet normal -0.707107 0 0.707107
    outer loop
      vertex -7.07107 10 7.07107
      vertex -7.07107 0 7.07107
      vertex -4.24264 0 9.89949
    endloop
  endfacet
  facet normal -0.707107 0 0.707107
    outer loop
      vertex -4.24264 10 9.89949
      vertex -7.07107 10 7.07107
      vertex -4.24264 0 9.89949
    endloop
  endfacet
  facet normal 0 -1 0
    outer loop
      vertex -4.24264 0 9.89949
      vertex -7.07107 0 7.07107
      vertex 0 0 0
    endloop
  endfacet
  facet normal 0 -1 0
    outer loop
      vertex 1.65685 0 4
      vertex -4.24264 0 9.89949
      vertex 0 0 0
    endloop
  endfacet
  facet normal 0 -1 0
    outer loop
      vertex 11 0 0
      vertex 1.65685 0 4
      vertex 0 0 0
    endloop
  endfacet
  facet normal 0 -1 0
    outer loop
      vertex 11 0 4
      vertex 1.65685 0 4
      vertex 11 0 0
    endloop
  endfacet
  facet normal -0.707107 0 -0.707107
    outer loop
      vertex -3.40837 7.09232 3.40837
      vertex -7.07107 10 7.07107
      vertex 0 10 0
    endloop
  endfacet
  facet normal -0.707107 0 -0.707107
    outer loop
      vertex -7.07107 0 7.07107
      vertex -7.07107 10 7.07107
      vertex -5.44472 5 5.44472
    endloop
  endfacet
  facet normal -0.707107 0 -0.707107
    outer loop
      vertex -7.07107 0 7.07107
      vertex -5.44472 5 5.44472
      vertex -5.14762 3.70687 5.14762
    endloop
  endfacet
  facet normal -0.707107 0 -0.707107
    outer loop
      vertex -7.07107 0 7.07107
      vertex -5.14762 3.70687 5.14762
      vertex -4.3698 2.90768 4.3698
    endloop
  endfacet
  facet normal -0.707107 0 -0.707107
    outer loop
      vertex -7.07107 0 7.07107
      vertex -4.3698 2.90768 4.3698
      vertex 0 0 0
    endloop
  endfacet
  facet normal -0.707107 0 -0.707107
    outer loop
      vertex -2.63055 3.70687 2.63055
      vertex 0 0 0
      vertex -3.40837 2.90768 3.40837
    endloop
  endfacet
  facet normal -0.707107 0 -0.707107
    outer loop
      vertex -2.33345 5 2.33345
      vertex 0 0 0
      vertex -2.63055 3.70687 2.63055
    endloop
  endfacet
  facet normal -0.707107 0 -0.707107
    outer loop
      vertex -5.14762 6.29313 5.14762
      vertex -7.07107 10 7.07107
      vertex -4.3698 7.09232 4.3698
    endloop
  endfacet
  facet normal -0.707107 0 -0.707107
    outer loop
      vertex 0 0 0
      vertex -2.33345 5 2.33345
      vertex 0 10 0
    endloop
  endfacet
  facet normal -0.707107 0 -0.707107
    outer loop
      vertex -2.33345 5 2.33345
      vertex -2.63055 6.29313 2.63055
      vertex 0 10 0
    endloop
  endfacet
  facet normal -0.707107 0 -0.707107
    outer loop
      vertex -2.63055 6.29313 2.63055
      vertex -3.40837 7.09232 3.40837
      vertex 0 10 0
    endloop
  endfacet
  facet normal -0.707107 0 -0.707107
    outer loop
      vertex -4.3698 7.09232 4.3698
      vertex -7.07107 10 7.07107
      vertex -3.40837 7.09232 3.40837
    endloop
  endfacet
  facet normal -0.707107 0 -0.707107
    outer loop
      vertex -5.44472 5 5.44472
      vertex -7.07107 10 7.07107
      vertex -5.14762 6.29313 5.14762
    endloop
  endfacet
  facet normal -0.707107 0 -0.707107
    outer loop
      vertex -3.40837 2.90768 3.40837
      vertex 0 0 0
      vertex -4.3698 2.90768 4.3698
    endloop
  endfacet
  facet normal 0 1 0
    outer loop
      vertex -7.07107 10 7.07107
      vertex -4.24264 10 9.89949
      vertex 0 10 0
    endloop
  endfacet
  facet normal 0 1 0
    outer loop
      vertex 0 10 0
      vertex -4.24264 10 9.89949
      vertex 1.65685 10 4
    endloop
  endfacet
  facet normal 0 1 0
    outer loop
      vertex 0 10 0
      vertex 1.65685 10 4
      vertex 11 10 4
    endloop
  endfacet
  facet normal 0 1 0
    outer loop
      vertex 0 10 0
      vertex 11 10 4
      vertex 11 10 0
    endloop
  endfacet
  facet normal 0.707107 0 0.707107
    outer loop
      vertex -1.68341 2.28949 7.34026
      vertex -4.24264 0 9.89949
      vertex 1.65685 0 4
    endloop
  endfacet
  facet normal 0.707107 0 0.707107
    outer loop
      vertex -4.24264 10 9.89949
      vertex -4.24264 0 9.89949
      vertex -2.69103 3.32481 8.34789
    endloop
  endfacet
  facet normal 0.707107 0 0.707107
    outer loop
      vertex -4.24264 10 9.89949
      vertex -2.69103 3.32481 8.34789
      vertex -3.07591 5 8.73277
    endloop
  endfacet
  facet normal 0.707107 0 0.707107
    outer loop
      vertex -4.24264 10 9.89949
      vertex -3.07591 5 8.73277
      vertex -2.69103 6.67519 8.34789
    endloop
  endfacet
  facet normal 0.707107 0 0.707107
    outer loop
      vertex -0.437913 2.28949 6.09477
      vertex -1.68341 2.28949 7.34026
      vertex 1.65685 0 4
    endloop
  endfacet
  facet normal 0.707107 0 0.707107
    outer loop
      vertex 1.65685 10 4
      vertex -4.24264 10 9.89949
      vertex -1.68341 7.71051 7.34026
    endloop
  endfacet
  facet normal 0.707107 0 0.707107
    outer loop
      vertex 1.65685 10 4
      vertex -1.68341 7.71051 7.34026
      vertex -0.437913 7.71051 6.09477
    endloop
  endfacet
  facet normal 0.707107 0 0.707107
    outer loop
      vertex 0.569715 3.32481 5.08714
      vertex -0.437913 2.28949 6.09477
      vertex 1.65685 0 4
    endloop
  endfacet
  facet normal 0.707107 0 0.707107
    outer loop
      vertex 1.65685 10 4
      vertex -0.437913 7.71051 6.09477
      vertex 0.569715 6.67519 5.08714
    endloop
  endfacet
  facet normal 0.707107 0 0.707107
    outer loop
      vertex 1.65685 10 4
      vertex 0.954594 5 4.70226
      vertex 1.65685 0 4
    endloop
  endfacet
  facet normal 0.707107 0 0.707107
    outer loop
      vertex 1.65685 10 4
      vertex 0.569715 6.67519 5.08714
      vertex 0.954594 5 4.70226
    endloop
  endfacet
  facet normal 0.707107 0 0.707107
    outer loop
      vertex -2.69103 3.32481 8.34789
      vertex -4.24264 0 9.89949
      vertex -1.68341 2.28949 7.34026
    endloop
  endfacet
  facet normal 0.707107 0 0.707107
    outer loop
      vertex -2.69103 6.67519 8.34789
      vertex -1.68341 7.71051 7.34026
      vertex -4.24264 10 9.89949
    endloop
  endfacet
  facet normal 0.707107 0 0.707107
    outer loop
      vertex 0.954594 5 4.70226
      vertex 0.569715 3.32481 5.08714
      vertex 1.65685 0 4
    endloop
  endfacet
  facet normal 0 0 1
    outer loop
      vertex 5.1193 2.28949 4
      vertex 1.65685 0 4
      vertex 11 0 4
    endloop
  endfacet
  facet normal 0 0 1
    outer loop
      vertex 3.15 5 4
      vertex 1.65685 0 4
      vertex 3.6943 3.32481 4
    endloop
  endfacet
  facet normal 0 0 1
    outer loop
      vertex 1.65685 10 4
      vertex 1.65685 0 4
      vertex 3.15 5 4
    endloop
  endfacet
  facet normal 0 0 1
    outer loop
      vertex 8.85 5 4
      vertex 8.3057 3.32481 4
      vertex 11 0 4
    endloop
  endfacet
  facet normal 0 0 1
    outer loop
      vertex 6.8807 2.28949 4
      vertex 5.1193 2.28949 4
      vertex 11 0 4
    endloop
  endfacet
  facet normal 0 0 1
    outer loop
      vertex 8.3057 3.32481 4
      vertex 6.8807 2.28949 4
      vertex 11 0 4
    endloop
  endfacet
  facet normal 0 0 1
    outer loop
      vertex 11 10 4
      vertex 1.65685 10 4
      vertex 5.1193 7.71051 4
    endloop
  endfacet
  facet normal 0 0 1
    outer loop
      vertex 11 10 4
      vertex 5.1193 7.71051 4
      vertex 6.8807 7.71051 4
    endloop
  endfacet
  facet normal 0 0 1
    outer loop
      vertex 11 10 4
      vertex 8.3057 6.67519 4
      vertex 11 0 4
    endloop
  endfacet
  facet normal 0 0 1
    outer loop
      vertex 11 10 4
      vertex 6.8807 7.71051 4
      vertex 8.3057 6.67519 4
    endloop
  endfacet
  facet normal 0 0 1
    outer loop
      vertex 8.3057 6.67519 4
      vertex 8.85 5 4
      vertex 11 0 4
    endloop
  endfacet
  facet normal 0 0 1
    outer loop
      vertex 3.6943 3.32481 4
      vertex 1.65685 0 4
      vertex 5.1193 2.28949 4
    endloop
  endfacet
  facet normal 0 0 1
    outer loop
      vertex 3.15 5 4
      vertex 3.6943 6.67519 4
      vertex 1.65685 10 4
    endloop
  endfacet
  facet normal 0 0 1
    outer loop
      vertex 3.6943 6.67519 4
      vertex 5.1193 7.71051 4
      vertex 1.65685 10 4
    endloop
  endfacet
  facet normal 1 0 0
    outer loop
      vertex 11 0 4
      vertex 11 0 0
      vertex 11 10 0
    endloop
  endfacet
  facet normal 1 0 0
    outer loop
      vertex 11 10 4
      vertex 11 0 4
      vertex 11 10 0
    endloop
  endfacet
  facet normal 0 0 -1
    outer loop
      vertex 6.67984 2.90768 0
      vertex 11 0 0
      vertex 5.32016 2.90768 0
    endloop
  endfacet
  facet normal 0 0 -1
    outer loop
      vertex 6.67984 7.09232 0
      vertex 0 10 0
      vertex 11 10 0
    endloop
  endfacet
  facet normal 0 0 -1
    outer loop
      vertex 0 0 0
      vertex 0 10 0
      vertex 3.8 5 0
    endloop
  endfacet
  facet normal 0 0 -1
    outer loop
      vertex 0 0 0
      vertex 3.8 5 0
      vertex 4.22016 3.70687 0
    endloop
  endfacet
  facet normal 0 0 -1
    outer loop
      vertex 0 0 0
      vertex 4.22016 3.70687 0
      vertex 5.32016 2.90768 0
    endloop
  endfacet
  facet normal 0 0 -1
    outer loop
      vertex 0 0 0
      vertex 5.32016 2.90768 0
      vertex 11 0 0
    endloop
  endfacet
  facet normal 0 0 -1
    outer loop
      vertex 7.77984 3.70687 0
      vertex 11 0 0
      vertex 6.67984 2.90768 0
    endloop
  endfacet
  facet normal 0 0 -1
    outer loop
      vertex 11 0 0
      vertex 7.77984 3.70687 0
      vertex 11 10 0
    endloop
  endfacet
  facet normal 0 0 -1
    outer loop
      vertex 7.77984 3.70687 0
      vertex 8.2 5 0
      vertex 11 10 0
    endloop
  endfacet
  facet normal 0 0 -1
    outer loop
      vertex 4.22016 6.29313 0
      vertex 0 10 0
      vertex 5.32016 7.09232 0
    endloop
  endfacet
  facet normal 0 0 -1
    outer loop
      vertex 8.2 5 0
      vertex 7.77984 6.29313 0
      vertex 11 10 0
    endloop
  endfacet
  facet normal 0 0 -1
    outer loop
      vertex 7.77984 6.29313 0
      vertex 6.67984 7.09232 0
      vertex 11 10 0
    endloop
  endfacet
  facet normal 0 0 -1
    outer loop
      vertex 5.32016 7.09232 0
      vertex 0 10 0
      vertex 6.67984 7.09232 0
    endloop
  endfacet
  facet normal 0 0 -1
    outer loop
      vertex 3.8 5 0
      vertex 0 10 0
      vertex 4.22016 6.29313 0
    endloop
  endfacet
  facet normal 0.672498 -0.309017 -0.672498
    outer loop
      vertex -3.37986 6.29313 6.91539
      vertex -3.67696 5 7.21249
      vertex -5.14762 6.29313 5.14762
    endloop
  endfacet
  facet normal 0.672498 -0.309017 -0.672498
    outer loop
      vertex -5.14762 6.29313 5.14762
      vertex -3.67696 5 7.21249
      vertex -5.44472 5 5.44472
    endloop
  endfacet
  facet normal 0.672498 0.309017 -0.672498
    outer loop
      vertex -3.37986 3.70687 6.91539
      vertex -5.14762 3.70687 5.14762
      vertex -3.67696 5 7.21249
    endloop
  endfacet
  facet normal 0.672498 0.309017 -0.672498
    outer loop
      vertex -3.67696 5 7.21249
      vertex -5.14762 3.70687 5.14762
      vertex -5.44472 5 5.44472
    endloop
  endfacet
  facet normal 0.415627 -0.809017 -0.415627
    outer loop
      vertex -4.3698 7.09232 4.3698
      vertex -2.60204 7.09232 6.13757
      vertex -3.37986 6.29313 6.91539
    endloop
  endfacet
  facet normal 0.415627 -0.809017 -0.415627
    outer loop
      vertex -5.14762 6.29313 5.14762
      vertex -4.3698 7.09232 4.3698
      vertex -3.37986 6.29313 6.91539
    endloop
  endfacet
  facet normal 0 -1 0
    outer loop
      vertex -3.40837 7.09232 3.40837
      vertex -1.6406 7.09232 5.17614
      vertex -2.60204 7.09232 6.13757
    endloop
  endfacet
  facet normal 0 -1 0
    outer loop
      vertex -4.3698 7.09232 4.3698
      vertex -3.40837 7.09232 3.40837
      vertex -2.60204 7.09232 6.13757
    endloop
  endfacet
  facet normal -0.415627 -0.809017 0.415627
    outer loop
      vertex -2.63055 6.29313 2.63055
      vertex -0.862786 6.29313 4.39832
      vertex -1.6406 7.09232 5.17614
    endloop
  endfacet
  facet normal -0.415627 -0.809017 0.415627
    outer loop
      vertex -3.40837 7.09232 3.40837
      vertex -2.63055 6.29313 2.63055
      vertex -1.6406 7.09232 5.17614
    endloop
  endfacet
  facet normal -0.672498 -0.309017 0.672498
    outer loop
      vertex -2.33345 5 2.33345
      vertex -0.565685 5 4.10122
      vertex -0.862786 6.29313 4.39832
    endloop
  endfacet
  facet normal -0.672498 -0.309017 0.672498
    outer loop
      vertex -2.63055 6.29313 2.63055
      vertex -2.33345 5 2.33345
      vertex -0.862786 6.29313 4.39832
    endloop
  endfacet
  facet normal -0.672498 0.309017 0.672498
    outer loop
      vertex -0.862786 3.70687 4.39832
      vertex -0.565685 5 4.10122
      vertex -2.33345 5 2.33345
    endloop
  endfacet
  facet normal -0.672498 0.309017 0.672498
    outer loop
      vertex -2.63055 3.70687 2.63055
      vertex -0.862786 3.70687 4.39832
      vertex -2.33345 5 2.33345
    endloop
  endfacet
  facet normal -0.415627 0.809017 0.415627
    outer loop
      vertex -0.862786 3.70687 4.39832
      vertex -2.63055 3.70687 2.63055
      vertex -1.6406 2.90768 5.17614
    endloop
  endfacet
  facet normal -0.415627 0.809017 0.415627
    outer loop
      vertex -1.6406 2.90768 5.17614
      vertex -2.63055 3.70687 2.63055
      vertex -3.40837 2.90768 3.40837
    endloop
  endfacet
  facet normal 0 1 0
    outer loop
      vertex -1.6406 2.90768 5.17614
      vertex -3.40837 2.90768 3.40837
      vertex -2.60204 2.90768 6.13757
    endloop
  endfacet
  facet normal 0 1 0
    outer loop
      vertex -2.60204 2.90768 6.13757
      vertex -3.40837 2.90768 3.40837
      vertex -4.3698 2.90768 4.3698
    endloop
  endfacet
  facet normal 0.415627 0.809017 -0.415627
    outer loop
      vertex -2.60204 2.90768 6.13757
      vertex -4.3698 2.90768 4.3698
      vertex -3.37986 3.70687 6.91539
    endloop
  endfacet
  facet normal 0.415627 0.809017 -0.415627
    outer loop
      vertex -3.37986 3.70687 6.91539
      vertex -4.3698 2.90768 4.3698
      vertex -5.14762 3.70687 5.14762
    endloop
  endfacet
  facet normal 0.672498 0.309017 -0.672498
    outer loop
      vertex -2.69103 3.32481 8.34789
      vertex -3.7517 3.32481 7.28723
      vertex -3.07591 5 8.73277
    endloop
  endfacet
  facet normal 0.672498 0.309017 -0.672498
    outer loop
      vertex -3.07591 5 8.73277
      vertex -3.7517 3.32481 7.28723
      vertex -4.13657 5 7.67211
    endloop
  endfacet
  facet normal 0.415627 0.809017 -0.415627
    outer loop
      vertex -1.68341 2.28949 7.34026
      vertex -2.74407 2.28949 6.2796
      vertex -2.69103 3.32481 8.34789
    endloop
  endfacet
  facet normal 0.415627 0.809017 -0.415627
    outer loop
      vertex -2.69103 3.32481 8.34789
      vertex -2.74407 2.28949 6.2796
      vertex -3.7517 3.32481 7.28723
    endloop
  endfacet
  facet normal 0 1 0
    outer loop
      vertex -0.437913 2.28949 6.09477
      vertex -1.49857 2.28949 5.03411
      vertex -1.68341 2.28949 7.34026
    endloop
  endfacet
  facet normal 0 1 0
    outer loop
      vertex -1.68341 2.28949 7.34026
      vertex -1.49857 2.28949 5.03411
      vertex -2.74407 2.28949 6.2796
    endloop
  endfacet
  facet normal -0.415627 0.809017 0.415627
    outer loop
      vertex 0.569715 3.32481 5.08714
      vertex -0.490946 3.32481 4.02648
      vertex -0.437913 2.28949 6.09477
    endloop
  endfacet
  facet normal -0.415627 0.809017 0.415627
    outer loop
      vertex -0.437913 2.28949 6.09477
      vertex -0.490946 3.32481 4.02648
      vertex -1.49857 2.28949 5.03411
    endloop
  endfacet
  facet normal -0.672498 0.309017 0.672498
    outer loop
      vertex 0.569715 3.32481 5.08714
      vertex 0.954594 5 4.70226
      vertex -0.106066 5 3.6416
    endloop
  endfacet
  facet normal -0.672498 0.309017 0.672498
    outer loop
      vertex -0.490946 3.32481 4.02648
      vertex 0.569715 3.32481 5.08714
      vertex -0.106066 5 3.6416
    endloop
  endfacet
  facet normal -0.672498 -0.309017 0.672498
    outer loop
      vertex -0.106066 5 3.6416
      vertex 0.954594 5 4.70226
      vertex 0.569715 6.67519 5.08714
    endloop
  endfacet
  facet normal -0.672498 -0.309017 0.672498
    outer loop
      vertex -0.490946 6.67519 4.02648
      vertex -0.106066 5 3.6416
      vertex 0.569715 6.67519 5.08714
    endloop
  endfacet
  facet normal -0.415627 -0.809017 0.415627
    outer loop
      vertex -0.490946 6.67519 4.02648
      vertex 0.569715 6.67519 5.08714
      vertex -0.437913 7.71051 6.09477
    endloop
  endfacet
  facet normal -0.415627 -0.809017 0.415627
    outer loop
      vertex -1.49857 7.71051 5.03411
      vertex -0.490946 6.67519 4.02648
      vertex -0.437913 7.71051 6.09477
    endloop
  endfacet
  facet normal 0 -1 0
    outer loop
      vertex -1.49857 7.71051 5.03411
      vertex -0.437913 7.71051 6.09477
      vertex -1.68341 7.71051 7.34026
    endloop
  endfacet
  facet normal 0 -1 0
    outer loop
      vertex -2.74407 7.71051 6.2796
      vertex -1.49857 7.71051 5.03411
      vertex -1.68341 7.71051 7.34026
    endloop
  endfacet
  facet normal 0.415627 -0.809017 -0.415627
    outer loop
      vertex -2.74407 7.71051 6.2796
      vertex -1.68341 7.71051 7.34026
      vertex -2.69103 6.67519 8.34789
    endloop
  endfacet
  facet normal 0.415627 -0.809017 -0.415627
    outer loop
      vertex -3.7517 6.67519 7.28723
      vertex -2.74407 7.71051 6.2796
      vertex -2.69103 6.67519 8.34789
    endloop
  endfacet
  facet normal 0.672498 -0.309017 -0.672498
    outer loop
      vertex -2.69103 6.67519 8.34789
      vertex -3.07591 5 8.73277
      vertex -3.7517 6.67519 7.28723
    endloop
  endfacet
  facet normal 0.672498 -0.309017 -0.672498
    outer loop
      vertex -3.7517 6.67519 7.28723
      vertex -3.07591 5 8.73277
      vertex -4.13657 5 7.67211
    endloop
  endfacet
  facet normal 0.951056 0.309017 0
    outer loop
      vertex 3.15 5 4
      vertex 3.6943 3.32481 4
      vertex 3.6943 3.32481 2.5
    endloop
  endfacet
  facet normal 0.951056 0.309017 0
    outer loop
      vertex 3.15 5 2.5
      vertex 3.15 5 4
      vertex 3.6943 3.32481 2.5
    endloop
  endfacet
  facet normal 0.587785 0.809017 0
    outer loop
      vertex 5.1193 2.28949 4
      vertex 5.1193 2.28949 2.5
      vertex 3.6943 3.32481 4
    endloop
  endfacet
  facet normal 0.587785 0.809017 0
    outer loop
      vertex 3.6943 3.32481 4
      vertex 5.1193 2.28949 2.5
      vertex 3.6943 3.32481 2.5
    endloop
  endfacet
  facet normal 0 1 0
    outer loop
      vertex 6.8807 2.28949 4
      vertex 6.8807 2.28949 2.5
      vertex 5.1193 2.28949 4
    endloop
  endfacet
  facet normal 0 1 0
    outer loop
      vertex 5.1193 2.28949 4
      vertex 6.8807 2.28949 2.5
      vertex 5.1193 2.28949 2.5
    endloop
  endfacet
  facet normal -0.587785 0.809017 0
    outer loop
      vertex 8.3057 3.32481 4
      vertex 8.3057 3.32481 2.5
      vertex 6.8807 2.28949 4
    endloop
  endfacet
  facet normal -0.587785 0.809017 0
    outer loop
      vertex 6.8807 2.28949 4
      vertex 8.3057 3.32481 2.5
      vertex 6.8807 2.28949 2.5
    endloop
  endfacet
  facet normal -0.951056 0.309017 0
    outer loop
      vertex 8.85 5 4
      vertex 8.85 5 2.5
      vertex 8.3057 3.32481 4
    endloop
  endfacet
  facet normal -0.951056 0.309017 0
    outer loop
      vertex 8.3057 3.32481 4
      vertex 8.85 5 2.5
      vertex 8.3057 3.32481 2.5
    endloop
  endfacet
  facet normal -0.951056 -0.309017 0
    outer loop
      vertex 8.85 5 4
      vertex 8.3057 6.67519 4
      vertex 8.85 5 2.5
    endloop
  endfacet
  facet normal -0.951056 -0.309017 0
    outer loop
      vertex 8.85 5 2.5
      vertex 8.3057 6.67519 4
      vertex 8.3057 6.67519 2.5
    endloop
  endfacet
  facet normal -0.587785 -0.809017 0
    outer loop
      vertex 8.3057 6.67519 2.5
      vertex 8.3057 6.67519 4
      vertex 6.8807 7.71051 4
    endloop
  endfacet
  facet normal -0.587785 -0.809017 0
    outer loop
      vertex 6.8807 7.71051 2.5
      vertex 8.3057 6.67519 2.5
      vertex 6.8807 7.71051 4
    endloop
  endfacet
  facet normal 0 -1 0
    outer loop
      vertex 6.8807 7.71051 2.5
      vertex 6.8807 7.71051 4
      vertex 5.1193 7.71051 4
    endloop
  endfacet
  facet normal 0 -1 0
    outer loop
      vertex 5.1193 7.71051 2.5
      vertex 6.8807 7.71051 2.5
      vertex 5.1193 7.71051 4
    endloop
  endfacet
  facet normal 0.587785 -0.809017 0
    outer loop
      vertex 5.1193 7.71051 2.5
      vertex 5.1193 7.71051 4
      vertex 3.6943 6.67519 4
    endloop
  endfacet
  facet normal 0.587785 -0.809017 0
    outer loop
      vertex 3.6943 6.67519 2.5
      vertex 5.1193 7.71051 2.5
      vertex 3.6943 6.67519 4
    endloop
  endfacet
  facet normal 0.951056 -0.309017 0
    outer loop
      vertex 3.6943 6.67519 2.5
      vertex 3.6943 6.67519 4
      vertex 3.15 5 4
    endloop
  endfacet
  facet normal 0.951056 -0.309017 0
    outer loop
      vertex 3.15 5 2.5
      vertex 3.6943 6.67519 2.5
      vertex 3.15 5 4
    endloop
  endfacet
  facet normal 0.951056 -0.309017 0
    outer loop
      vertex 4.22016 6.29313 0
      vertex 4.22016 6.29313 2.5
      vertex 3.8 5 2.5
    endloop
  endfacet
  facet normal 0.951056 -0.309017 0
    outer loop
      vertex 3.8 5 0
      vertex 4.22016 6.29313 0
      vertex 3.8 5 2.5
    endloop
  endfacet
  facet normal 0.951056 0.309017 0
    outer loop
      vertex 3.8 5 2.5
      vertex 4.22016 3.70687 2.5
      vertex 4.22016 3.70687 0
    endloop
  endfacet
  facet normal 0.951056 0.309017 0
    outer loop
      vertex 3.8 5 0
      vertex 3.8 5 2.5
      vertex 4.22016 3.70687 0
    endloop
  endfacet
  facet normal 0.587785 -0.809017 0
    outer loop
      vertex 5.32016 7.09232 0
      vertex 5.32016 7.09232 2.5
      vertex 4.22016 6.29313 2.5
    endloop
  endfacet
  facet normal 0.587785 -0.809017 0
    outer loop
      vertex 4.22016 6.29313 0
      vertex 5.32016 7.09232 0
      vertex 4.22016 6.29313 2.5
    endloop
  endfacet
  facet normal 0 -1 0
    outer loop
      vertex 6.67984 7.09232 0
      vertex 6.67984 7.09232 2.5
      vertex 5.32016 7.09232 2.5
    endloop
  endfacet
  facet normal 0 -1 0
    outer loop
      vertex 5.32016 7.09232 0
      vertex 6.67984 7.09232 0
      vertex 5.32016 7.09232 2.5
    endloop
  endfacet
  facet normal -0.587785 -0.809017 0
    outer loop
      vertex 7.77984 6.29313 0
      vertex 7.77984 6.29313 2.5
      vertex 6.67984 7.09232 2.5
    endloop
  endfacet
  facet normal -0.587785 -0.809017 0
    outer loop
      vertex 6.67984 7.09232 0
      vertex 7.77984 6.29313 0
      vertex 6.67984 7.09232 2.5
    endloop
  endfacet
  facet normal -0.951056 -0.309017 0
    outer loop
      vertex 8.2 5 2.5
      vertex 7.77984 6.29313 2.5
      vertex 8.2 5 0
    endloop
  endfacet
  facet normal -0.951056 -0.309017 0
    outer loop
      vertex 8.2 5 0
      vertex 7.77984 6.29313 2.5
      vertex 7.77984 6.29313 0
    endloop
  endfacet
  facet normal -0.951056 0.309017 0
    outer loop
      vertex 8.2 5 2.5
      vertex 8.2 5 0
      vertex 7.77984 3.70687 2.5
    endloop
  endfacet
  facet normal -0.951056 0.309017 0
    outer loop
      vertex 7.77984 3.70687 2.5
      vertex 8.2 5 0
      vertex 7.77984 3.70687 0
    endloop
  endfacet
  facet normal -0.587785 0.809017 0
    outer loop
      vertex 7.77984 3.70687 2.5
      vertex 7.77984 3.70687 0
      vertex 6.67984 2.90768 2.5
    endloop
  endfacet
  facet normal -0.587785 0.809017 0
    outer loop
      vertex 6.67984 2.90768 2.5
      vertex 7.77984 3.70687 0
      vertex 6.67984 2.90768 0
    endloop
  endfacet
  facet normal 0 1 0
    outer loop
      vertex 6.67984 2.90768 2.5
      vertex 6.67984 2.90768 0
      vertex 5.32016 2.90768 2.5
    endloop
  endfacet
  facet normal 0 1 0
    outer loop
      vertex 5.32016 2.90768 2.5
      vertex 6.67984 2.90768 0
      vertex 5.32016 2.90768 0
    endloop
  endfacet
  facet normal 0.587785 0.809017 0
    outer loop
      vertex 5.32016 2.90768 2.5
      vertex 5.32016 2.90768 0
      vertex 4.22016 3.70687 2.5
    endloop
  endfacet
  facet normal 0.587785 0.809017 0
    outer loop
      vertex 4.22016 3.70687 2.5
      vertex 5.32016 2.90768 0
      vertex 4.22016 3.70687 0
    endloop
  endfacet
  facet normal 0.707107 0 0.707107
    outer loop
      vertex -3.7517 3.32481 7.28723
      vertex -2.74407 2.28949 6.2796
      vertex -1.49857 2.28949 5.03411
    endloop
  endfacet
  facet normal 0.707107 0 0.707107
    outer loop
      vertex -2.60204 2.90768 6.13757
      vertex -3.7517 3.32481 7.28723
      vertex -1.49857 2.28949 5.03411
    endloop
  endfacet
  facet normal 0.707107 0 0.707107
    outer loop
      vertex -0.862786 3.70687 4.39832
      vertex -1.6406 2.90768 5.17614
      vertex -0.490946 3.32481 4.02648
    endloop
  endfacet
  facet normal 0.707107 0 0.707107
    outer loop
      vertex -4.13657 5 7.67211
      vertex -3.7517 3.32481 7.28723
      vertex -3.7517 6.67519 7.28723
    endloop
  endfacet
  facet normal 0.707107 0 0.707107
    outer loop
      vertex -2.60204 7.09232 6.13757
      vertex -1.6406 7.09232 5.17614
      vertex -1.49857 7.71051 5.03411
    endloop
  endfacet
  facet normal 0.707107 0 0.707107
    outer loop
      vertex -3.7517 6.67519 7.28723
      vertex -3.7517 3.32481 7.28723
      vertex -3.67696 5 7.21249
    endloop
  endfacet
  facet normal 0.707107 0 0.707107
    outer loop
      vertex -3.7517 6.67519 7.28723
      vertex -3.37986 6.29313 6.91539
      vertex -2.74407 7.71051 6.2796
    endloop
  endfacet
  facet normal 0.707107 0 0.707107
    outer loop
      vertex -3.7517 6.67519 7.28723
      vertex -3.67696 5 7.21249
      vertex -3.37986 6.29313 6.91539
    endloop
  endfacet
  facet normal 0.707107 0 0.707107
    outer loop
      vertex -2.74407 7.71051 6.2796
      vertex -2.60204 7.09232 6.13757
      vertex -1.49857 7.71051 5.03411
    endloop
  endfacet
  facet normal 0.707107 0 0.707107
    outer loop
      vertex -3.37986 6.29313 6.91539
      vertex -2.60204 7.09232 6.13757
      vertex -2.74407 7.71051 6.2796
    endloop
  endfacet
  facet normal 0.707107 0 0.707107
    outer loop
      vertex -1.49857 7.71051 5.03411
      vertex -1.6406 7.09232 5.17614
      vertex -0.490946 6.67519 4.02648
    endloop
  endfacet
  facet normal 0.707107 0 0.707107
    outer loop
      vertex -2.60204 2.90768 6.13757
      vertex -3.37986 3.70687 6.91539
      vertex -3.7517 3.32481 7.28723
    endloop
  endfacet
  facet normal 0.707107 0 0.707107
    outer loop
      vertex -1.6406 7.09232 5.17614
      vertex -0.862786 6.29313 4.39832
      vertex -0.490946 6.67519 4.02648
    endloop
  endfacet
  facet normal 0.707107 0 0.707107
    outer loop
      vertex -0.490946 6.67519 4.02648
      vertex -0.565685 5 4.10122
      vertex -0.106066 5 3.6416
    endloop
  endfacet
  facet normal 0.707107 0 0.707107
    outer loop
      vertex -0.106066 5 3.6416
      vertex -0.862786 3.70687 4.39832
      vertex -0.490946 3.32481 4.02648
    endloop
  endfacet
  facet normal 0.707107 0 0.707107
    outer loop
      vertex -0.490946 3.32481 4.02648
      vertex -1.6406 2.90768 5.17614
      vertex -1.49857 2.28949 5.03411
    endloop
  endfacet
  facet normal 0.707107 0 0.707107
    outer loop
      vertex -1.6406 2.90768 5.17614
      vertex -2.60204 2.90768 6.13757
      vertex -1.49857 2.28949 5.03411
    endloop
  endfacet
  facet normal 0.707107 0 0.707107
    outer loop
      vertex -0.862786 6.29313 4.39832
      vertex -0.565685 5 4.10122
      vertex -0.490946 6.67519 4.02648
    endloop
  endfacet
  facet normal 0.707107 0 0.707107
    outer loop
      vertex -0.565685 5 4.10122
      vertex -0.862786 3.70687 4.39832
      vertex -0.106066 5 3.6416
    endloop
  endfacet
  facet normal 0.707107 0 0.707107
    outer loop
      vertex -3.37986 3.70687 6.91539
      vertex -3.67696 5 7.21249
      vertex -3.7517 3.32481 7.28723
    endloop
  endfacet
  facet normal 0 0 1
    outer loop
      vertex 3.6943 3.32481 2.5
      vertex 5.1193 2.28949 2.5
      vertex 6.8807 2.28949 2.5
    endloop
  endfacet
  facet normal 0 0 1
    outer loop
      vertex 5.32016 2.90768 2.5
      vertex 3.6943 3.32481 2.5
      vertex 6.8807 2.28949 2.5
    endloop
  endfacet
  facet normal 0 0 1
    outer loop
      vertex 7.77984 3.70687 2.5
      vertex 6.67984 2.90768 2.5
      vertex 8.3057 3.32481 2.5
    endloop
  endfacet
  facet normal 0 0 1
    outer loop
      vertex 3.15 5 2.5
      vertex 3.6943 3.32481 2.5
      vertex 3.6943 6.67519 2.5
    endloop
  endfacet
  facet normal 0 0 1
    outer loop
      vertex 5.32016 7.09232 2.5
      vertex 6.67984 7.09232 2.5
      vertex 6.8807 7.71051 2.5
    endloop
  endfacet
  facet normal 0 0 1
    outer loop
      vertex 3.6943 6.67519 2.5
      vertex 3.6943 3.32481 2.5
      vertex 3.8 5 2.5
    endloop
  endfacet
  facet normal 0 0 1
    outer loop
      vertex 3.6943 6.67519 2.5
      vertex 4.22016 6.29313 2.5
      vertex 5.1193 7.71051 2.5
    endloop
  endfacet
  facet normal 0 0 1
    outer loop
      vertex 3.6943 6.67519 2.5
      vertex 3.8 5 2.5
      vertex 4.22016 6.29313 2.5
    endloop
  endfacet
  facet normal 0 0 1
    outer loop
      vertex 5.1193 7.71051 2.5
      vertex 5.32016 7.09232 2.5
      vertex 6.8807 7.71051 2.5
    endloop
  endfacet
  facet normal 0 0 1
    outer loop
      vertex 4.22016 6.29313 2.5
      vertex 5.32016 7.09232 2.5
      vertex 5.1193 7.71051 2.5
    endloop
  endfacet
  facet normal 0 0 1
    outer loop
      vertex 6.8807 7.71051 2.5
      vertex 6.67984 7.09232 2.5
      vertex 8.3057 6.67519 2.5
    endloop
  endfacet
  facet normal 0 0 1
    outer loop
      vertex 5.32016 2.90768 2.5
      vertex 4.22016 3.70687 2.5
      vertex 3.6943 3.32481 2.5
    endloop
  endfacet
  facet normal 0 0 1
    outer loop
      vertex 6.67984 7.09232 2.5
      vertex 7.77984 6.29313 2.5
      vertex 8.3057 6.67519 2.5
    endloop
  endfacet
  facet normal 0 0 1
    outer loop
      vertex 8.3057 6.67519 2.5
      vertex 8.2 5 2.5
      vertex 8.85 5 2.5
    endloop
  endfacet
  facet normal 0 0 1
    outer loop
      vertex 8.85 5 2.5
      vertex 7.77984 3.70687 2.5
      vertex 8.3057 3.32481 2.5
    endloop
  endfacet
  facet normal 0 0 1
    outer loop
      vertex 8.3057 3.32481 2.5
      vertex 6.67984 2.90768 2.5
      vertex 6.8807 2.28949 2.5
    endloop
  endfacet
  facet normal 0 0 1
    outer loop
      vertex 6.67984 2.90768 2.5
      vertex 5.32016 2.90768 2.5
      vertex 6.8807 2.28949 2.5
    endloop
  endfacet
  facet normal 0 0 1
    outer loop
      vertex 7.77984 6.29313 2.5
      vertex 8.2 5 2.5
      vertex 8.3057 6.67519 2.5
    endloop
  endfacet
  facet normal 0 0 1
    outer loop
      vertex 8.2 5 2.5
      vertex 7.77984 3.70687 2.5
      vertex 8.85 5 2.5
    endloop
  endfacet
  facet normal 0 0 1
    outer loop
      vertex 4.22016 3.70687 2.5
      vertex 3.8 5 2.5
      vertex 3.6943 3.32481 2.5
    endloop
  endfacet
endsolid OpenSCAD_Model
