solid OpenSCAD_Model
  facet normal -1 0 0
    outer loop
      vertex 1.25 21.9812 10.0809
      vertex 1.25 0 11
      vertex 1.25 41 11
    endloop
  endfacet
  facet normal -1 0 0
    outer loop
      vertex 1.25 17.1664 7.55388
      vertex 1.25 0 11
      vertex 1.25 18.2812 9.16889
    endloop
  endfacet
  facet normal -1 0 0
    outer loop
      vertex 1.25 0 0
      vertex 1.25 0 11
      vertex 1.25 16.9299 5.6058
    endloop
  endfacet
  facet normal -1 0 0
    outer loop
      vertex 1.25 24.8336 7.55388
      vertex 1.25 53 0
      vertex 1.25 25.0701 5.6058
    endloop
  endfacet
  facet normal -1 0 0
    outer loop
      vertex 1.25 0 0
      vertex 1.25 16.9299 5.6058
      vertex 1.25 17.6258 3.77094
    endloop
  endfacet
  facet normal -1 0 0
    outer loop
      vertex 1.25 0 0
      vertex 1.25 17.6258 3.77094
      vertex 1.25 19.0946 2.46963
    endloop
  endfacet
  facet normal -1 0 0
    outer loop
      vertex 1.25 0 0
      vertex 1.25 19.0946 2.46963
      vertex 1.25 21 2
    endloop
  endfacet
  facet normal -1 0 0
    outer loop
      vertex 1.25 0 0
      vertex 1.25 21 2
      vertex 1.25 53 0
    endloop
  endfacet
  facet normal -1 0 0
    outer loop
      vertex 1.25 24.3742 3.77094
      vertex 1.25 53 0
      vertex 1.25 22.9054 2.46963
    endloop
  endfacet
  facet normal -1 0 0
    outer loop
      vertex 1.25 25.0701 5.6058
      vertex 1.25 53 0
      vertex 1.25 24.3742 3.77094
    endloop
  endfacet
  facet normal -1 0 0
    outer loop
      vertex 1.25 22.9054 2.46963
      vertex 1.25 53 0
      vertex 1.25 21 2
    endloop
  endfacet
  facet normal -1 0 0
    outer loop
      vertex 1.25 24.8336 7.55388
      vertex 1.25 41 6
      vertex 1.25 53 0
    endloop
  endfacet
  facet normal -1 0 0
    outer loop
      vertex 1.25 16.9299 5.6058
      vertex 1.25 0 11
      vertex 1.25 17.1664 7.55388
    endloop
  endfacet
  facet normal -1 0 0
    outer loop
      vertex 1.25 23.7188 9.16889
      vertex 1.25 41 6
      vertex 1.25 24.8336 7.55388
    endloop
  endfacet
  facet normal -1 0 0
    outer loop
      vertex 1.25 41 6
      vertex 1.25 23.7188 9.16889
      vertex 1.25 41 11
    endloop
  endfacet
  facet normal -1 0 0
    outer loop
      vertex 1.25 20.0188 10.0809
      vertex 1.25 0 11
      vertex 1.25 21.9812 10.0809
    endloop
  endfacet
  facet normal -1 0 0
    outer loop
      vertex 1.25 23.7188 9.16889
      vertex 1.25 21.9812 10.0809
      vertex 1.25 41 11
    endloop
  endfacet
  facet normal -1 0 0
    outer loop
      vertex 1.25 18.2812 9.16889
      vertex 1.25 0 11
      vertex 1.25 20.0188 10.0809
    endloop
  endfacet
  facet normal -1 0 0
    outer loop
      vertex 1.25 53 6
      vertex 1.25 53 0
      vertex 1.25 41 6
    endloop
  endfacet
  facet normal 0 -1 0
    outer loop
      vertex 1.25 0 11
      vertex 1.25 0 0
      vertex 23.25 0 0
    endloop
  endfacet
  facet normal 0 -1 0
    outer loop
      vertex 23.25 0 11
      vertex 1.25 0 11
      vertex 23.25 0 0
    endloop
  endfacet
  facet normal 0 0 -1
    outer loop
      vertex 17.0179 38.9545 0
      vertex 1.25 53 0
      vertex 23.25 53 0
    endloop
  endfacet
  facet normal 0 0 -1
    outer loop
      vertex 1.25 0 0
      vertex 1.25 53 0
      vertex 3.01787 5.95454 0
    endloop
  endfacet
  facet normal 0 0 -1
    outer loop
      vertex 6.37168 36.0771 0
      vertex 7.5 32.5 0
      vertex 4.51045 35.6457 0
    endloop
  endfacet
  facet normal 0 0 -1
    outer loop
      vertex 1.25 0 0
      vertex 3.01787 5.95454 0
      vertex 3.01787 4.04546 0
    endloop
  endfacet
  facet normal 0 0 -1
    outer loop
      vertex 1.25 0 0
      vertex 3.01787 4.04546 0
      vertex 4.51045 2.85516 0
    endloop
  endfacet
  facet normal 0 0 -1
    outer loop
      vertex 1.25 0 0
      vertex 4.51045 2.85516 0
      vertex 23.25 0 0
    endloop
  endfacet
  facet normal 0 0 -1
    outer loop
      vertex 4.51045 2.85516 0
      vertex 6.37168 3.27997 0
      vertex 23.25 0 0
    endloop
  endfacet
  facet normal 0 0 -1
    outer loop
      vertex 4.51045 35.6457 0
      vertex 6.37168 6.72003 0
      vertex 3.01787 36.8544 0
    endloop
  endfacet
  facet normal 0 0 -1
    outer loop
      vertex 3.01787 36.8544 0
      vertex 1.25 53 0
      vertex 3.01787 38.9545 0
    endloop
  endfacet
  facet normal 0 0 -1
    outer loop
      vertex 4.51045 35.6457 0
      vertex 7.2 5 0
      vertex 6.37168 6.72003 0
    endloop
  endfacet
  facet normal 0 0 -1
    outer loop
      vertex 3.01787 5.95454 0
      vertex 1.25 53 0
      vertex 4.51045 7.14484 0
    endloop
  endfacet
  facet normal 0 0 -1
    outer loop
      vertex 7.2 38 0
      vertex 1.25 53 0
      vertex 16.5 32.5 0
    endloop
  endfacet
  facet normal 0 0 -1
    outer loop
      vertex 4.51045 7.14484 0
      vertex 1.25 53 0
      vertex 3.01787 36.8544 0
    endloop
  endfacet
  facet normal 0 0 -1
    outer loop
      vertex 4.51045 7.14484 0
      vertex 3.01787 36.8544 0
      vertex 6.37168 6.72003 0
    endloop
  endfacet
  facet normal 0 0 -1
    outer loop
      vertex 16.5 32.5 0
      vertex 18.5105 7.14484 0
      vertex 16.5 9.5 0
    endloop
  endfacet
  facet normal 0 0 -1
    outer loop
      vertex 7.5 32.5 0
      vertex 6.37168 36.0771 0
      vertex 7.2 37.8237 0
    endloop
  endfacet
  facet normal 0 0 -1
    outer loop
      vertex 7.5 9.5 0
      vertex 4.51045 35.6457 0
      vertex 7.5 32.5 0
    endloop
  endfacet
  facet normal 0 0 -1
    outer loop
      vertex 4.51045 40.1448 0
      vertex 1.25 53 0
      vertex 6.37168 39.72 0
    endloop
  endfacet
  facet normal 0 0 -1
    outer loop
      vertex 7.5 32.5 0
      vertex 7.2 37.8237 0
      vertex 7.2 38 0
    endloop
  endfacet
  facet normal 0 0 -1
    outer loop
      vertex 3.01787 38.9545 0
      vertex 1.25 53 0
      vertex 4.51045 40.1448 0
    endloop
  endfacet
  facet normal 0 0 -1
    outer loop
      vertex 6.37168 39.72 0
      vertex 1.25 53 0
      vertex 7.2 38 0
    endloop
  endfacet
  facet normal 0 0 -1
    outer loop
      vertex 7.2 5 0
      vertex 4.51045 35.6457 0
      vertex 7.5 9.5 0
    endloop
  endfacet
  facet normal 0 0 -1
    outer loop
      vertex 20.3717 3.27997 0
      vertex 23.25 0 0
      vertex 18.5105 2.85516 0
    endloop
  endfacet
  facet normal 0 0 -1
    outer loop
      vertex 20.3717 39.72 0
      vertex 23.25 53 0
      vertex 21.2 38 0
    endloop
  endfacet
  facet normal 0 0 -1
    outer loop
      vertex 7.5 9.5 0
      vertex 16.5 9.5 0
      vertex 17.0179 5.95454 0
    endloop
  endfacet
  facet normal 0 0 -1
    outer loop
      vertex 7.5 9.5 0
      vertex 17.0179 5.95454 0
      vertex 17.0179 4.04546 0
    endloop
  endfacet
  facet normal 0 0 -1
    outer loop
      vertex 7.2 5 0
      vertex 7.5 9.5 0
      vertex 18.5105 2.85516 0
    endloop
  endfacet
  facet normal 0 0 -1
    outer loop
      vertex 7.2 5 0
      vertex 18.5105 2.85516 0
      vertex 23.25 0 0
    endloop
  endfacet
  facet normal 0 0 -1
    outer loop
      vertex 18.5105 2.85516 0
      vertex 7.5 9.5 0
      vertex 17.0179 4.04546 0
    endloop
  endfacet
  facet normal 0 0 -1
    outer loop
      vertex 21.2 5 0
      vertex 23.25 0 0
      vertex 20.3717 3.27997 0
    endloop
  endfacet
  facet normal 0 0 -1
    outer loop
      vertex 23.25 0 0
      vertex 21.2 5 0
      vertex 16.5 32.5 0
    endloop
  endfacet
  facet normal 0 0 -1
    outer loop
      vertex 16.5 32.5 0
      vertex 20.3717 6.72003 0
      vertex 18.5105 7.14484 0
    endloop
  endfacet
  facet normal 0 0 -1
    outer loop
      vertex 16.5 32.5 0
      vertex 1.25 53 0
      vertex 17.0179 38.9545 0
    endloop
  endfacet
  facet normal 0 0 -1
    outer loop
      vertex 18.5105 35.6457 0
      vertex 16.5 32.5 0
      vertex 17.0179 36.8544 0
    endloop
  endfacet
  facet normal 0 0 -1
    outer loop
      vertex 16.5 32.5 0
      vertex 17.0179 38.9545 0
      vertex 17.0179 36.8544 0
    endloop
  endfacet
  facet normal 0 0 -1
    outer loop
      vertex 23.25 0 0
      vertex 16.5 32.5 0
      vertex 18.5105 35.6457 0
    endloop
  endfacet
  facet normal 0 0 -1
    outer loop
      vertex 23.25 0 0
      vertex 18.5105 35.6457 0
      vertex 20.3717 36.0771 0
    endloop
  endfacet
  facet normal 0 0 -1
    outer loop
      vertex 23.25 0 0
      vertex 20.3717 36.0771 0
      vertex 21.2 37.8237 0
    endloop
  endfacet
  facet normal 0 0 -1
    outer loop
      vertex 23.25 0 0
      vertex 21.2 37.8237 0
      vertex 23.25 53 0
    endloop
  endfacet
  facet normal 0 0 -1
    outer loop
      vertex 21.2 37.8237 0
      vertex 21.2 38 0
      vertex 23.25 53 0
    endloop
  endfacet
  facet normal 0 0 -1
    outer loop
      vertex 18.5105 40.1448 0
      vertex 23.25 53 0
      vertex 20.3717 39.72 0
    endloop
  endfacet
  facet normal 0 0 -1
    outer loop
      vertex 7.2 5 0
      vertex 23.25 0 0
      vertex 6.37168 3.27997 0
    endloop
  endfacet
  facet normal 0 0 -1
    outer loop
      vertex 7.5 32.5 0
      vertex 7.2 38 0
      vertex 16.5 32.5 0
    endloop
  endfacet
  facet normal 0 0 -1
    outer loop
      vertex 17.0179 38.9545 0
      vertex 23.25 53 0
      vertex 18.5105 40.1448 0
    endloop
  endfacet
  facet normal 0 0 -1
    outer loop
      vertex 16.5 32.5 0
      vertex 21.2 5 0
      vertex 20.3717 6.72003 0
    endloop
  endfacet
  facet normal 0 0 -1
    outer loop
      vertex 17.0179 5.95454 0
      vertex 16.5 9.5 0
      vertex 18.5105 7.14484 0
    endloop
  endfacet
  facet normal 0 1 0
    outer loop
      vertex 1.25 53 0
      vertex 1.25 53 6
      vertex 23.25 53 0
    endloop
  endfacet
  facet normal 0 1 0
    outer loop
      vertex 23.25 53 0
      vertex 1.25 53 6
      vertex 23.25 53 6
    endloop
  endfacet
  facet normal 0 0 1
    outer loop
      vertex 23.25 41 6
      vertex 23.25 53 6
      vertex 1.25 53 6
    endloop
  endfacet
  facet normal 0 0 1
    outer loop
      vertex 1.25 41 6
      vertex 23.25 41 6
      vertex 1.25 53 6
    endloop
  endfacet
  facet normal 0 1 0
    outer loop
      vertex 23.25 41 11
      vertex 23.25 41 6
      vertex 1.25 41 11
    endloop
  endfacet
  facet normal 0 1 0
    outer loop
      vertex 1.25 41 11
      vertex 23.25 41 6
      vertex 1.25 41 6
    endloop
  endfacet
  facet normal 0 0 1
    outer loop
      vertex 6.37168 3.27997 11
      vertex 1.25 0 11
      vertex 23.25 0 11
    endloop
  endfacet
  facet normal 0 0 1
    outer loop
      vertex 1.25 41 11
      vertex 1.25 0 11
      vertex 3.01787 4.04546 11
    endloop
  endfacet
  facet normal 0 0 1
    outer loop
      vertex 3.01787 34.9148 11
      vertex 3.01787 38.9545 11
      vertex 1.25 41 11
    endloop
  endfacet
  facet normal 0 0 1
    outer loop
      vertex 1.25 41 11
      vertex 3.01787 4.04546 11
      vertex 3.01787 5.95454 11
    endloop
  endfacet
  facet normal 0 0 1
    outer loop
      vertex 1.25 41 11
      vertex 3.01787 5.95454 11
      vertex 4.51045 7.14484 11
    endloop
  endfacet
  facet normal 0 0 1
    outer loop
      vertex 18.5105 2.85516 11
      vertex 6.37168 6.72003 11
      vertex 23.25 0 11
    endloop
  endfacet
  facet normal 0 0 1
    outer loop
      vertex 1.25 41 11
      vertex 4.51045 7.14484 11
      vertex 6.37168 6.72003 11
    endloop
  endfacet
  facet normal 0 0 1
    outer loop
      vertex 18.5105 2.85516 11
      vertex 17.0179 4.04546 11
      vertex 7.5 9.5 11
    endloop
  endfacet
  facet normal 0 0 1
    outer loop
      vertex 4.51045 2.85516 11
      vertex 1.25 0 11
      vertex 6.37168 3.27997 11
    endloop
  endfacet
  facet normal 0 0 1
    outer loop
      vertex 3.01787 4.04546 11
      vertex 1.25 0 11
      vertex 4.51045 2.85516 11
    endloop
  endfacet
  facet normal 0 0 1
    outer loop
      vertex 17.0179 5.95454 11
      vertex 18.5105 7.14484 11
      vertex 16.5 9.5 11
    endloop
  endfacet
  facet normal 0 0 1
    outer loop
      vertex 1.25 41 11
      vertex 6.37168 6.72003 11
      vertex 3.01787 34.9148 11
    endloop
  endfacet
  facet normal 0 0 1
    outer loop
      vertex 4.51045 40.1448 11
      vertex 1.25 41 11
      vertex 3.01787 38.9545 11
    endloop
  endfacet
  facet normal 0 0 1
    outer loop
      vertex 23.25 41 11
      vertex 1.25 41 11
      vertex 4.51045 40.1448 11
    endloop
  endfacet
  facet normal 0 0 1
    outer loop
      vertex 23.25 41 11
      vertex 4.51045 40.1448 11
      vertex 6.37168 39.72 11
    endloop
  endfacet
  facet normal 0 0 1
    outer loop
      vertex 20.3717 3.27997 11
      vertex 18.5105 2.85516 11
      vertex 23.25 0 11
    endloop
  endfacet
  facet normal 0 0 1
    outer loop
      vertex 6.37168 39.72 11
      vertex 18.5105 40.1448 11
      vertex 23.25 41 11
    endloop
  endfacet
  facet normal 0 0 1
    outer loop
      vertex 6.37168 39.72 11
      vertex 7.2 38 11
      vertex 18.5105 40.1448 11
    endloop
  endfacet
  facet normal 0 0 1
    outer loop
      vertex 3.01787 34.9148 11
      vertex 6.37168 6.72003 11
      vertex 7.5 9.5 11
    endloop
  endfacet
  facet normal 0 0 1
    outer loop
      vertex 7.2 35.8841 11
      vertex 6.37168 34.1375 11
      vertex 7.5 32.5 11
    endloop
  endfacet
  facet normal 0 0 1
    outer loop
      vertex 20.3717 34.1375 11
      vertex 16.5 32.5 11
      vertex 23.25 0 11
    endloop
  endfacet
  facet normal 0 0 1
    outer loop
      vertex 17.0179 34.9148 11
      vertex 7.2 38 11
      vertex 16.5 32.5 11
    endloop
  endfacet
  facet normal 0 0 1
    outer loop
      vertex 7.5 32.5 11
      vertex 16.5 32.5 11
      vertex 7.2 38 11
    endloop
  endfacet
  facet normal 0 0 1
    outer loop
      vertex 16.5 9.5 11
      vertex 7.5 9.5 11
      vertex 17.0179 4.04546 11
    endloop
  endfacet
  facet normal 0 0 1
    outer loop
      vertex 16.5 9.5 11
      vertex 17.0179 4.04546 11
      vertex 17.0179 5.95454 11
    endloop
  endfacet
  facet normal 0 0 1
    outer loop
      vertex 18.5105 33.7061 11
      vertex 17.0179 34.9148 11
      vertex 16.5 32.5 11
    endloop
  endfacet
  facet normal 0 0 1
    outer loop
      vertex 7.5 32.5 11
      vertex 7.2 38 11
      vertex 7.2 35.8841 11
    endloop
  endfacet
  facet normal 0 0 1
    outer loop
      vertex 16.5 32.5 11
      vertex 18.5105 7.14484 11
      vertex 20.3717 6.72003 11
    endloop
  endfacet
  facet normal 0 0 1
    outer loop
      vertex 16.5 32.5 11
      vertex 16.5 9.5 11
      vertex 18.5105 7.14484 11
    endloop
  endfacet
  facet normal 0 0 1
    outer loop
      vertex 16.5 32.5 11
      vertex 21.2 5 11
      vertex 23.25 0 11
    endloop
  endfacet
  facet normal 0 0 1
    outer loop
      vertex 21.2 5 11
      vertex 20.3717 3.27997 11
      vertex 23.25 0 11
    endloop
  endfacet
  facet normal 0 0 1
    outer loop
      vertex 7.5 9.5 11
      vertex 6.37168 6.72003 11
      vertex 18.5105 2.85516 11
    endloop
  endfacet
  facet normal 0 0 1
    outer loop
      vertex 20.3717 39.72 11
      vertex 21.2 38 11
      vertex 23.25 41 11
    endloop
  endfacet
  facet normal 0 0 1
    outer loop
      vertex 17.0179 38.9545 11
      vertex 7.2 38 11
      vertex 17.0179 34.9148 11
    endloop
  endfacet
  facet normal 0 0 1
    outer loop
      vertex 18.5105 40.1448 11
      vertex 20.3717 39.72 11
      vertex 23.25 41 11
    endloop
  endfacet
  facet normal 0 0 1
    outer loop
      vertex 16.5 32.5 11
      vertex 20.3717 6.72003 11
      vertex 21.2 5 11
    endloop
  endfacet
  facet normal 0 0 1
    outer loop
      vertex 23.25 41 11
      vertex 21.2 38 11
      vertex 23.25 0 11
    endloop
  endfacet
  facet normal 0 0 1
    outer loop
      vertex 17.0179 38.9545 11
      vertex 18.5105 40.1448 11
      vertex 7.2 38 11
    endloop
  endfacet
  facet normal 0 0 1
    outer loop
      vertex 21.2 38 11
      vertex 21.2 35.8841 11
      vertex 23.25 0 11
    endloop
  endfacet
  facet normal 0 0 1
    outer loop
      vertex 21.2 35.8841 11
      vertex 20.3717 34.1375 11
      vertex 23.25 0 11
    endloop
  endfacet
  facet normal 0 0 1
    outer loop
      vertex 18.5105 33.7061 11
      vertex 16.5 32.5 11
      vertex 20.3717 34.1375 11
    endloop
  endfacet
  facet normal 0 0 1
    outer loop
      vertex 6.37168 6.72003 11
      vertex 7.2 5 11
      vertex 23.25 0 11
    endloop
  endfacet
  facet normal 0 0 1
    outer loop
      vertex 7.2 5 11
      vertex 6.37168 3.27997 11
      vertex 23.25 0 11
    endloop
  endfacet
  facet normal 0 0 1
    outer loop
      vertex 7.5 9.5 11
      vertex 4.51045 33.7061 11
      vertex 3.01787 34.9148 11
    endloop
  endfacet
  facet normal 0 0 1
    outer loop
      vertex 7.5 9.5 11
      vertex 6.37168 34.1375 11
      vertex 4.51045 33.7061 11
    endloop
  endfacet
  facet normal 0 0 1
    outer loop
      vertex 7.5 9.5 11
      vertex 7.5 32.5 11
      vertex 6.37168 34.1375 11
    endloop
  endfacet
  facet normal 1.26136e-016 0.822984 -0.568065
    outer loop
      vertex 7.5 18.2812 9.16889
      vertex 7.5 17.1664 7.55388
      vertex 1.25 18.2812 9.16889
    endloop
  endfacet
  facet normal 1.26136e-016 0.822984 -0.568065
    outer loop
      vertex 1.25 18.2812 9.16889
      vertex 7.5 17.1664 7.55388
      vertex 1.25 17.1664 7.55388
    endloop
  endfacet
  facet normal 2.67644e-017 0.992709 -0.120536
    outer loop
      vertex 7.5 17.1664 7.55388
      vertex 7.5 16.9299 5.6058
      vertex 1.25 17.1664 7.55388
    endloop
  endfacet
  facet normal 2.67644e-017 0.992709 -0.120536
    outer loop
      vertex 1.25 17.1664 7.55388
      vertex 7.5 16.9299 5.6058
      vertex 1.25 16.9299 5.6058
    endloop
  endfacet
  facet normal 1.96611e-016 0.464723 -0.885456
    outer loop
      vertex 7.5 20.0188 10.0809
      vertex 7.5 18.2812 9.16889
      vertex 1.25 20.0188 10.0809
    endloop
  endfacet
  facet normal 1.96611e-016 0.464723 -0.885456
    outer loop
      vertex 1.25 20.0188 10.0809
      vertex 7.5 18.2812 9.16889
      vertex 1.25 18.2812 9.16889
    endloop
  endfacet
  facet normal 2.22045e-016 0 -1
    outer loop
      vertex 7.5 21.9812 10.0809
      vertex 7.5 20.0188 10.0809
      vertex 1.25 21.9812 10.0809
    endloop
  endfacet
  facet normal 2.22045e-016 0 -1
    outer loop
      vertex 1.25 21.9812 10.0809
      vertex 7.5 20.0188 10.0809
      vertex 1.25 20.0188 10.0809
    endloop
  endfacet
  facet normal 1.96611e-016 -0.464723 -0.885456
    outer loop
      vertex 7.5 23.7188 9.16889
      vertex 7.5 21.9812 10.0809
      vertex 1.25 23.7188 9.16889
    endloop
  endfacet
  facet normal 1.96611e-016 -0.464723 -0.885456
    outer loop
      vertex 1.25 23.7188 9.16889
      vertex 7.5 21.9812 10.0809
      vertex 1.25 21.9812 10.0809
    endloop
  endfacet
  facet normal 1.26136e-016 -0.822984 -0.568065
    outer loop
      vertex 1.25 24.8336 7.55388
      vertex 7.5 24.8336 7.55388
      vertex 7.5 23.7188 9.16889
    endloop
  endfacet
  facet normal 1.26136e-016 -0.822984 -0.568065
    outer loop
      vertex 1.25 23.7188 9.16889
      vertex 1.25 24.8336 7.55388
      vertex 7.5 23.7188 9.16889
    endloop
  endfacet
  facet normal 2.67644e-017 -0.992709 -0.120536
    outer loop
      vertex 1.25 25.0701 5.6058
      vertex 7.5 25.0701 5.6058
      vertex 7.5 24.8336 7.55388
    endloop
  endfacet
  facet normal 2.67644e-017 -0.992709 -0.120536
    outer loop
      vertex 1.25 24.8336 7.55388
      vertex 1.25 25.0701 5.6058
      vertex 7.5 24.8336 7.55388
    endloop
  endfacet
  facet normal -7.87381e-017 -0.935016 0.354605
    outer loop
      vertex 7.5 24.3742 3.77094
      vertex 7.5 25.0701 5.6058
      vertex 1.25 25.0701 5.6058
    endloop
  endfacet
  facet normal -7.87381e-017 -0.935016 0.354605
    outer loop
      vertex 1.25 24.3742 3.77094
      vertex 7.5 24.3742 3.77094
      vertex 1.25 25.0701 5.6058
    endloop
  endfacet
  facet normal -1.66203e-016 -0.663123 0.748511
    outer loop
      vertex 7.5 22.9054 2.46963
      vertex 7.5 24.3742 3.77094
      vertex 1.25 24.3742 3.77094
    endloop
  endfacet
  facet normal -1.66203e-016 -0.663123 0.748511
    outer loop
      vertex 1.25 22.9054 2.46963
      vertex 7.5 22.9054 2.46963
      vertex 1.25 24.3742 3.77094
    endloop
  endfacet
  facet normal -2.15592e-016 -0.239316 0.970942
    outer loop
      vertex 7.5 21 2
      vertex 7.5 22.9054 2.46963
      vertex 1.25 22.9054 2.46963
    endloop
  endfacet
  facet normal -2.15592e-016 -0.239316 0.970942
    outer loop
      vertex 1.25 21 2
      vertex 7.5 21 2
      vertex 1.25 22.9054 2.46963
    endloop
  endfacet
  facet normal -2.15592e-016 0.239316 0.970942
    outer loop
      vertex 7.5 19.0946 2.46963
      vertex 7.5 21 2
      vertex 1.25 21 2
    endloop
  endfacet
  facet normal -2.15592e-016 0.239316 0.970942
    outer loop
      vertex 1.25 19.0946 2.46963
      vertex 7.5 19.0946 2.46963
      vertex 1.25 21 2
    endloop
  endfacet
  facet normal -1.66203e-016 0.663123 0.748511
    outer loop
      vertex 7.5 17.6258 3.77094
      vertex 7.5 19.0946 2.46963
      vertex 1.25 19.0946 2.46963
    endloop
  endfacet
  facet normal -1.66203e-016 0.663123 0.748511
    outer loop
      vertex 1.25 17.6258 3.77094
      vertex 7.5 17.6258 3.77094
      vertex 1.25 19.0946 2.46963
    endloop
  endfacet
  facet normal -7.87381e-017 0.935016 0.354605
    outer loop
      vertex 7.5 17.6258 3.77094
      vertex 1.25 17.6258 3.77094
      vertex 7.5 16.9299 5.6058
    endloop
  endfacet
  facet normal -7.87381e-017 0.935016 0.354605
    outer loop
      vertex 7.5 16.9299 5.6058
      vertex 1.25 17.6258 3.77094
      vertex 1.25 16.9299 5.6058
    endloop
  endfacet
  facet normal 1 0 0
    outer loop
      vertex 23.25 21 2
      vertex 23.25 0 0
      vertex 23.25 53 0
    endloop
  endfacet
  facet normal 1 0 0
    outer loop
      vertex 23.25 53 6
      vertex 23.25 41 6
      vertex 23.25 53 0
    endloop
  endfacet
  facet normal 1 0 0
    outer loop
      vertex 23.25 21 2
      vertex 23.25 19.0946 2.46963
      vertex 23.25 0 0
    endloop
  endfacet
  facet normal 1 0 0
    outer loop
      vertex 23.25 0 11
      vertex 23.25 0 0
      vertex 23.25 16.9299 5.6058
    endloop
  endfacet
  facet normal 1 0 0
    outer loop
      vertex 23.25 25.0701 5.6058
      vertex 23.25 24.3742 3.77094
      vertex 23.25 53 0
    endloop
  endfacet
  facet normal 1 0 0
    outer loop
      vertex 23.25 24.8336 7.55388
      vertex 23.25 25.0701 5.6058
      vertex 23.25 53 0
    endloop
  endfacet
  facet normal 1 0 0
    outer loop
      vertex 23.25 41 11
      vertex 23.25 0 11
      vertex 23.25 20.0188 10.0809
    endloop
  endfacet
  facet normal 1 0 0
    outer loop
      vertex 23.25 41 11
      vertex 23.25 20.0188 10.0809
      vertex 23.25 21.9812 10.0809
    endloop
  endfacet
  facet normal 1 0 0
    outer loop
      vertex 23.25 16.9299 5.6058
      vertex 23.25 17.1664 7.55388
      vertex 23.25 0 11
    endloop
  endfacet
  facet normal 1 0 0
    outer loop
      vertex 23.25 18.2812 9.16889
      vertex 23.25 20.0188 10.0809
      vertex 23.25 0 11
    endloop
  endfacet
  facet normal 1 0 0
    outer loop
      vertex 23.25 17.1664 7.55388
      vertex 23.25 18.2812 9.16889
      vertex 23.25 0 11
    endloop
  endfacet
  facet normal 1 0 0
    outer loop
      vertex 23.25 24.3742 3.77094
      vertex 23.25 22.9054 2.46963
      vertex 23.25 53 0
    endloop
  endfacet
  facet normal 1 0 0
    outer loop
      vertex 23.25 22.9054 2.46963
      vertex 23.25 21 2
      vertex 23.25 53 0
    endloop
  endfacet
  facet normal 1 0 0
    outer loop
      vertex 23.25 19.0946 2.46963
      vertex 23.25 17.6258 3.77094
      vertex 23.25 0 0
    endloop
  endfacet
  facet normal 1 0 0
    outer loop
      vertex 23.25 16.9299 5.6058
      vertex 23.25 0 0
      vertex 23.25 17.6258 3.77094
    endloop
  endfacet
  facet normal 1 0 0
    outer loop
      vertex 23.25 21.9812 10.0809
      vertex 23.25 23.7188 9.16889
      vertex 23.25 41 6
    endloop
  endfacet
  facet normal 1 0 0
    outer loop
      vertex 23.25 24.8336 7.55388
      vertex 23.25 53 0
      vertex 23.25 41 6
    endloop
  endfacet
  facet normal 1 0 0
    outer loop
      vertex 23.25 23.7188 9.16889
      vertex 23.25 24.8336 7.55388
      vertex 23.25 41 6
    endloop
  endfacet
  facet normal 1 0 0
    outer loop
      vertex 23.25 41 6
      vertex 23.25 41 11
      vertex 23.25 21.9812 10.0809
    endloop
  endfacet
  facet normal 0.62349 -0.781832 0
    outer loop
      vertex 4.51045 7.14484 0
      vertex 4.51045 7.14484 11
      vertex 3.01787 5.95454 11
    endloop
  endfacet
  facet normal 0.62349 -0.781832 0
    outer loop
      vertex 3.01787 5.95454 0
      vertex 4.51045 7.14484 0
      vertex 3.01787 5.95454 11
    endloop
  endfacet
  facet normal 1 0 0
    outer loop
      vertex 3.01787 5.95454 0
      vertex 3.01787 5.95454 11
      vertex 3.01787 4.04546 11
    endloop
  endfacet
  facet normal 1 0 0
    outer loop
      vertex 3.01787 4.04546 0
      vertex 3.01787 5.95454 0
      vertex 3.01787 4.04546 11
    endloop
  endfacet
  facet normal -0.222521 -0.974928 0
    outer loop
      vertex 6.37168 6.72003 0
      vertex 6.37168 6.72003 11
      vertex 4.51045 7.14484 11
    endloop
  endfacet
  facet normal -0.222521 -0.974928 0
    outer loop
      vertex 4.51045 7.14484 0
      vertex 6.37168 6.72003 0
      vertex 4.51045 7.14484 11
    endloop
  endfacet
  facet normal -0.900969 -0.433884 0
    outer loop
      vertex 7.2 5 11
      vertex 6.37168 6.72003 11
      vertex 7.2 5 0
    endloop
  endfacet
  facet normal -0.900969 -0.433884 0
    outer loop
      vertex 7.2 5 0
      vertex 6.37168 6.72003 11
      vertex 6.37168 6.72003 0
    endloop
  endfacet
  facet normal -0.900969 0.433884 0
    outer loop
      vertex 7.2 5 11
      vertex 7.2 5 0
      vertex 6.37168 3.27997 11
    endloop
  endfacet
  facet normal -0.900969 0.433884 0
    outer loop
      vertex 6.37168 3.27997 11
      vertex 7.2 5 0
      vertex 6.37168 3.27997 0
    endloop
  endfacet
  facet normal -0.222521 0.974928 0
    outer loop
      vertex 6.37168 3.27997 11
      vertex 6.37168 3.27997 0
      vertex 4.51045 2.85516 11
    endloop
  endfacet
  facet normal -0.222521 0.974928 0
    outer loop
      vertex 4.51045 2.85516 11
      vertex 6.37168 3.27997 0
      vertex 4.51045 2.85516 0
    endloop
  endfacet
  facet normal 0.62349 0.781832 0
    outer loop
      vertex 4.51045 2.85516 11
      vertex 4.51045 2.85516 0
      vertex 3.01787 4.04546 11
    endloop
  endfacet
  facet normal 0.62349 0.781832 0
    outer loop
      vertex 3.01787 4.04546 11
      vertex 4.51045 2.85516 0
      vertex 3.01787 4.04546 0
    endloop
  endfacet
  facet normal 0.62349 -0.781832 0
    outer loop
      vertex 4.51045 40.1448 0
      vertex 4.51045 40.1448 11
      vertex 3.01787 38.9545 11
    endloop
  endfacet
  facet normal 0.62349 -0.781832 0
    outer loop
      vertex 3.01787 38.9545 0
      vertex 4.51045 40.1448 0
      vertex 3.01787 38.9545 11
    endloop
  endfacet
  facet normal 1 0 0
    outer loop
      vertex 3.01787 36.8544 0
      vertex 3.01787 38.9545 0
      vertex 3.01787 38.9545 11
    endloop
  endfacet
  facet normal 1 0 0
    outer loop
      vertex 3.01787 34.9148 11
      vertex 3.01787 36.8544 0
      vertex 3.01787 38.9545 11
    endloop
  endfacet
  facet normal -0.222521 -0.974928 0
    outer loop
      vertex 6.37168 39.72 0
      vertex 6.37168 39.72 11
      vertex 4.51045 40.1448 11
    endloop
  endfacet
  facet normal -0.222521 -0.974928 0
    outer loop
      vertex 4.51045 40.1448 0
      vertex 6.37168 39.72 0
      vertex 4.51045 40.1448 11
    endloop
  endfacet
  facet normal -0.900969 -0.433884 0
    outer loop
      vertex 7.2 38 11
      vertex 6.37168 39.72 11
      vertex 7.2 38 0
    endloop
  endfacet
  facet normal -0.900969 -0.433884 0
    outer loop
      vertex 7.2 38 0
      vertex 6.37168 39.72 11
      vertex 6.37168 39.72 0
    endloop
  endfacet
  facet normal -1 0 0
    outer loop
      vertex 7.2 38 0
      vertex 7.2 37.8237 0
      vertex 7.2 38 11
    endloop
  endfacet
  facet normal -1 0 0
    outer loop
      vertex 7.2 38 11
      vertex 7.2 37.8237 0
      vertex 7.2 35.8841 11
    endloop
  endfacet
  facet normal -0.900969 0.427292 0.0753431
    outer loop
      vertex 7.2 37.8237 0
      vertex 6.37168 36.0771 0
      vertex 7.2 35.8841 11
    endloop
  endfacet
  facet normal -0.900969 0.427292 0.0753431
    outer loop
      vertex 7.2 35.8841 11
      vertex 6.37168 36.0771 0
      vertex 6.37168 34.1375 11
    endloop
  endfacet
  facet normal -0.222521 0.960117 0.169294
    outer loop
      vertex 6.37168 36.0771 0
      vertex 4.51045 35.6457 0
      vertex 6.37168 34.1375 11
    endloop
  endfacet
  facet normal -0.222521 0.960117 0.169294
    outer loop
      vertex 6.37168 34.1375 11
      vertex 4.51045 35.6457 0
      vertex 4.51045 33.7061 11
    endloop
  endfacet
  facet normal 0.62349 0.769954 0.135764
    outer loop
      vertex 4.51045 35.6457 0
      vertex 3.01787 36.8544 0
      vertex 4.51045 33.7061 11
    endloop
  endfacet
  facet normal 0.62349 0.769954 0.135764
    outer loop
      vertex 4.51045 33.7061 11
      vertex 3.01787 36.8544 0
      vertex 3.01787 34.9148 11
    endloop
  endfacet
  facet normal 1 0 0
    outer loop
      vertex 7.5 20.0188 10.0809
      vertex 7.5 32.5 11
      vertex 7.5 9.5 11
    endloop
  endfacet
  facet normal 1 0 0
    outer loop
      vertex 7.5 21.9812 10.0809
      vertex 7.5 23.7188 9.16889
      vertex 7.5 32.5 11
    endloop
  endfacet
  facet normal 1 0 0
    outer loop
      vertex 7.5 17.1664 7.55388
      vertex 7.5 18.2812 9.16889
      vertex 7.5 9.5 11
    endloop
  endfacet
  facet normal 1 0 0
    outer loop
      vertex 7.5 18.2812 9.16889
      vertex 7.5 20.0188 10.0809
      vertex 7.5 9.5 11
    endloop
  endfacet
  facet normal 1 0 0
    outer loop
      vertex 7.5 21.9812 10.0809
      vertex 7.5 32.5 11
      vertex 7.5 20.0188 10.0809
    endloop
  endfacet
  facet normal 1 0 0
    outer loop
      vertex 7.5 23.7188 9.16889
      vertex 7.5 24.8336 7.55388
      vertex 7.5 32.5 11
    endloop
  endfacet
  facet normal 1 0 0
    outer loop
      vertex 7.5 25.0701 5.6058
      vertex 7.5 24.3742 3.77094
      vertex 7.5 32.5 0
    endloop
  endfacet
  facet normal 1 0 0
    outer loop
      vertex 7.5 32.5 0
      vertex 7.5 32.5 11
      vertex 7.5 24.8336 7.55388
    endloop
  endfacet
  facet normal 1 0 0
    outer loop
      vertex 7.5 32.5 0
      vertex 7.5 24.8336 7.55388
      vertex 7.5 25.0701 5.6058
    endloop
  endfacet
  facet normal 1 0 0
    outer loop
      vertex 7.5 21 2
      vertex 7.5 19.0946 2.46963
      vertex 7.5 9.5 0
    endloop
  endfacet
  facet normal 1 0 0
    outer loop
      vertex 7.5 22.9054 2.46963
      vertex 7.5 32.5 0
      vertex 7.5 24.3742 3.77094
    endloop
  endfacet
  facet normal 1 0 0
    outer loop
      vertex 7.5 17.6258 3.77094
      vertex 7.5 16.9299 5.6058
      vertex 7.5 9.5 11
    endloop
  endfacet
  facet normal 1 0 0
    outer loop
      vertex 7.5 21 2
      vertex 7.5 32.5 0
      vertex 7.5 22.9054 2.46963
    endloop
  endfacet
  facet normal 1 0 0
    outer loop
      vertex 7.5 9.5 0
      vertex 7.5 32.5 0
      vertex 7.5 21 2
    endloop
  endfacet
  facet normal 1 0 0
    outer loop
      vertex 7.5 9.5 0
      vertex 7.5 17.6258 3.77094
      vertex 7.5 9.5 11
    endloop
  endfacet
  facet normal 1 0 0
    outer loop
      vertex 7.5 9.5 0
      vertex 7.5 19.0946 2.46963
      vertex 7.5 17.6258 3.77094
    endloop
  endfacet
  facet normal 1 0 0
    outer loop
      vertex 7.5 16.9299 5.6058
      vertex 7.5 17.1664 7.55388
      vertex 7.5 9.5 11
    endloop
  endfacet
  facet normal 0 -1 0
    outer loop
      vertex 16.5 32.5 0
      vertex 16.5 32.5 11
      vertex 7.5 32.5 11
    endloop
  endfacet
  facet normal 0 -1 0
    outer loop
      vertex 7.5 32.5 0
      vertex 16.5 32.5 0
      vertex 7.5 32.5 11
    endloop
  endfacet
  facet normal -1 0 0
    outer loop
      vertex 16.5 21 2
      vertex 16.5 32.5 0
      vertex 16.5 9.5 0
    endloop
  endfacet
  facet normal -1 0 0
    outer loop
      vertex 16.5 25.0701 5.6058
      vertex 16.5 32.5 0
      vertex 16.5 24.3742 3.77094
    endloop
  endfacet
  facet normal -1 0 0
    outer loop
      vertex 16.5 9.5 11
      vertex 16.5 16.9299 5.6058
      vertex 16.5 9.5 0
    endloop
  endfacet
  facet normal -1 0 0
    outer loop
      vertex 16.5 24.3742 3.77094
      vertex 16.5 32.5 0
      vertex 16.5 22.9054 2.46963
    endloop
  endfacet
  facet normal -1 0 0
    outer loop
      vertex 16.5 16.9299 5.6058
      vertex 16.5 17.6258 3.77094
      vertex 16.5 9.5 0
    endloop
  endfacet
  facet normal -1 0 0
    outer loop
      vertex 16.5 17.6258 3.77094
      vertex 16.5 19.0946 2.46963
      vertex 16.5 9.5 0
    endloop
  endfacet
  facet normal -1 0 0
    outer loop
      vertex 16.5 19.0946 2.46963
      vertex 16.5 21 2
      vertex 16.5 9.5 0
    endloop
  endfacet
  facet normal -1 0 0
    outer loop
      vertex 16.5 22.9054 2.46963
      vertex 16.5 32.5 0
      vertex 16.5 21 2
    endloop
  endfacet
  facet normal -1 0 0
    outer loop
      vertex 16.5 32.5 11
      vertex 16.5 32.5 0
      vertex 16.5 25.0701 5.6058
    endloop
  endfacet
  facet normal -1 0 0
    outer loop
      vertex 16.5 32.5 11
      vertex 16.5 25.0701 5.6058
      vertex 16.5 24.8336 7.55388
    endloop
  endfacet
  facet normal -1 0 0
    outer loop
      vertex 16.5 32.5 11
      vertex 16.5 24.8336 7.55388
      vertex 16.5 23.7188 9.16889
    endloop
  endfacet
  facet normal -1 0 0
    outer loop
      vertex 16.5 32.5 11
      vertex 16.5 23.7188 9.16889
      vertex 16.5 21.9812 10.0809
    endloop
  endfacet
  facet normal -1 0 0
    outer loop
      vertex 16.5 32.5 11
      vertex 16.5 21.9812 10.0809
      vertex 16.5 9.5 11
    endloop
  endfacet
  facet normal -1 0 0
    outer loop
      vertex 16.5 21.9812 10.0809
      vertex 16.5 20.0188 10.0809
      vertex 16.5 9.5 11
    endloop
  endfacet
  facet normal -1 0 0
    outer loop
      vertex 16.5 17.1664 7.55388
      vertex 16.5 9.5 11
      vertex 16.5 18.2812 9.16889
    endloop
  endfacet
  facet normal -1 0 0
    outer loop
      vertex 16.5 18.2812 9.16889
      vertex 16.5 9.5 11
      vertex 16.5 20.0188 10.0809
    endloop
  endfacet
  facet normal -1 0 0
    outer loop
      vertex 16.5 16.9299 5.6058
      vertex 16.5 9.5 11
      vertex 16.5 17.1664 7.55388
    endloop
  endfacet
  facet normal 0 1 0
    outer loop
      vertex 16.5 9.5 11
      vertex 16.5 9.5 0
      vertex 7.5 9.5 11
    endloop
  endfacet
  facet normal 0 1 0
    outer loop
      vertex 7.5 9.5 11
      vertex 16.5 9.5 0
      vertex 7.5 9.5 0
    endloop
  endfacet
  facet normal 0.62349 -0.781832 0
    outer loop
      vertex 18.5105 7.14484 0
      vertex 18.5105 7.14484 11
      vertex 17.0179 5.95454 11
    endloop
  endfacet
  facet normal 0.62349 -0.781832 0
    outer loop
      vertex 17.0179 5.95454 0
      vertex 18.5105 7.14484 0
      vertex 17.0179 5.95454 11
    endloop
  endfacet
  facet normal 1 0 0
    outer loop
      vertex 17.0179 5.95454 0
      vertex 17.0179 5.95454 11
      vertex 17.0179 4.04546 11
    endloop
  endfacet
  facet normal 1 0 0
    outer loop
      vertex 17.0179 4.04546 0
      vertex 17.0179 5.95454 0
      vertex 17.0179 4.04546 11
    endloop
  endfacet
  facet normal -0.222521 -0.974928 0
    outer loop
      vertex 20.3717 6.72003 0
      vertex 20.3717 6.72003 11
      vertex 18.5105 7.14484 11
    endloop
  endfacet
  facet normal -0.222521 -0.974928 0
    outer loop
      vertex 18.5105 7.14484 0
      vertex 20.3717 6.72003 0
      vertex 18.5105 7.14484 11
    endloop
  endfacet
  facet normal -0.900969 -0.433884 0
    outer loop
      vertex 21.2 5 11
      vertex 20.3717 6.72003 11
      vertex 21.2 5 0
    endloop
  endfacet
  facet normal -0.900969 -0.433884 0
    outer loop
      vertex 21.2 5 0
      vertex 20.3717 6.72003 11
      vertex 20.3717 6.72003 0
    endloop
  endfacet
  facet normal -0.900969 0.433884 0
    outer loop
      vertex 21.2 5 11
      vertex 21.2 5 0
      vertex 20.3717 3.27997 11
    endloop
  endfacet
  facet normal -0.900969 0.433884 0
    outer loop
      vertex 20.3717 3.27997 11
      vertex 21.2 5 0
      vertex 20.3717 3.27997 0
    endloop
  endfacet
  facet normal -0.222521 0.974928 0
    outer loop
      vertex 20.3717 3.27997 11
      vertex 20.3717 3.27997 0
      vertex 18.5105 2.85516 11
    endloop
  endfacet
  facet normal -0.222521 0.974928 0
    outer loop
      vertex 18.5105 2.85516 11
      vertex 20.3717 3.27997 0
      vertex 18.5105 2.85516 0
    endloop
  endfacet
  facet normal 0.62349 0.781832 0
    outer loop
      vertex 18.5105 2.85516 11
      vertex 18.5105 2.85516 0
      vertex 17.0179 4.04546 11
    endloop
  endfacet
  facet normal 0.62349 0.781832 0
    outer loop
      vertex 17.0179 4.04546 11
      vertex 18.5105 2.85516 0
      vertex 17.0179 4.04546 0
    endloop
  endfacet
  facet normal 0.62349 -0.781832 0
    outer loop
      vertex 18.5105 40.1448 0
      vertex 18.5105 40.1448 11
      vertex 17.0179 38.9545 11
    endloop
  endfacet
  facet normal 0.62349 -0.781832 0
    outer loop
      vertex 17.0179 38.9545 0
      vertex 18.5105 40.1448 0
      vertex 17.0179 38.9545 11
    endloop
  endfacet
  facet normal 1 0 0
    outer loop
      vertex 17.0179 36.8544 0
      vertex 17.0179 38.9545 0
      vertex 17.0179 38.9545 11
    endloop
  endfacet
  facet normal 1 0 0
    outer loop
      vertex 17.0179 34.9148 11
      vertex 17.0179 36.8544 0
      vertex 17.0179 38.9545 11
    endloop
  endfacet
  facet normal -0.222521 -0.974928 0
    outer loop
      vertex 20.3717 39.72 0
      vertex 20.3717 39.72 11
      vertex 18.5105 40.1448 11
    endloop
  endfacet
  facet normal -0.222521 -0.974928 0
    outer loop
      vertex 18.5105 40.1448 0
      vertex 20.3717 39.72 0
      vertex 18.5105 40.1448 11
    endloop
  endfacet
  facet normal -0.900969 -0.433884 0
    outer loop
      vertex 21.2 38 11
      vertex 20.3717 39.72 11
      vertex 21.2 38 0
    endloop
  endfacet
  facet normal -0.900969 -0.433884 0
    outer loop
      vertex 21.2 38 0
      vertex 20.3717 39.72 11
      vertex 20.3717 39.72 0
    endloop
  endfacet
  facet normal -1 0 0
    outer loop
      vertex 21.2 38 0
      vertex 21.2 37.8237 0
      vertex 21.2 38 11
    endloop
  endfacet
  facet normal -1 0 0
    outer loop
      vertex 21.2 38 11
      vertex 21.2 37.8237 0
      vertex 21.2 35.8841 11
    endloop
  endfacet
  facet normal -0.900969 0.427292 0.0753431
    outer loop
      vertex 21.2 37.8237 0
      vertex 20.3717 36.0771 0
      vertex 21.2 35.8841 11
    endloop
  endfacet
  facet normal -0.900969 0.427292 0.0753431
    outer loop
      vertex 21.2 35.8841 11
      vertex 20.3717 36.0771 0
      vertex 20.3717 34.1375 11
    endloop
  endfacet
  facet normal -0.222521 0.960117 0.169294
    outer loop
      vertex 20.3717 36.0771 0
      vertex 18.5105 35.6457 0
      vertex 20.3717 34.1375 11
    endloop
  endfacet
  facet normal -0.222521 0.960117 0.169294
    outer loop
      vertex 20.3717 34.1375 11
      vertex 18.5105 35.6457 0
      vertex 18.5105 33.7061 11
    endloop
  endfacet
  facet normal 0.62349 0.769954 0.135764
    outer loop
      vertex 18.5105 35.6457 0
      vertex 17.0179 36.8544 0
      vertex 18.5105 33.7061 11
    endloop
  endfacet
  facet normal 0.62349 0.769954 0.135764
    outer loop
      vertex 18.5105 33.7061 11
      vertex 17.0179 36.8544 0
      vertex 17.0179 34.9148 11
    endloop
  endfacet
  facet normal -7.87381e-017 0.935016 0.354605
    outer loop
      vertex 23.25 17.6258 3.77094
      vertex 16.5 17.6258 3.77094
      vertex 23.25 16.9299 5.6058
    endloop
  endfacet
  facet normal -7.87381e-017 0.935016 0.354605
    outer loop
      vertex 23.25 16.9299 5.6058
      vertex 16.5 17.6258 3.77094
      vertex 16.5 16.9299 5.6058
    endloop
  endfacet
  facet normal 2.67644e-017 0.992709 -0.120536
    outer loop
      vertex 23.25 17.1664 7.55388
      vertex 23.25 16.9299 5.6058
      vertex 16.5 17.1664 7.55388
    endloop
  endfacet
  facet normal 2.67644e-017 0.992709 -0.120536
    outer loop
      vertex 16.5 17.1664 7.55388
      vertex 23.25 16.9299 5.6058
      vertex 16.5 16.9299 5.6058
    endloop
  endfacet
  facet normal -1.66203e-016 0.663123 0.748511
    outer loop
      vertex 23.25 17.6258 3.77094
      vertex 23.25 19.0946 2.46963
      vertex 16.5 19.0946 2.46963
    endloop
  endfacet
  facet normal -1.66203e-016 0.663123 0.748511
    outer loop
      vertex 16.5 17.6258 3.77094
      vertex 23.25 17.6258 3.77094
      vertex 16.5 19.0946 2.46963
    endloop
  endfacet
  facet normal -2.15592e-016 0.239316 0.970942
    outer loop
      vertex 23.25 19.0946 2.46963
      vertex 23.25 21 2
      vertex 16.5 21 2
    endloop
  endfacet
  facet normal -2.15592e-016 0.239316 0.970942
    outer loop
      vertex 16.5 19.0946 2.46963
      vertex 23.25 19.0946 2.46963
      vertex 16.5 21 2
    endloop
  endfacet
  facet normal -2.15592e-016 -0.239316 0.970942
    outer loop
      vertex 23.25 21 2
      vertex 23.25 22.9054 2.46963
      vertex 16.5 22.9054 2.46963
    endloop
  endfacet
  facet normal -2.15592e-016 -0.239316 0.970942
    outer loop
      vertex 16.5 21 2
      vertex 23.25 21 2
      vertex 16.5 22.9054 2.46963
    endloop
  endfacet
  facet normal -1.66203e-016 -0.663123 0.748511
    outer loop
      vertex 23.25 22.9054 2.46963
      vertex 23.25 24.3742 3.77094
      vertex 16.5 24.3742 3.77094
    endloop
  endfacet
  facet normal -1.66203e-016 -0.663123 0.748511
    outer loop
      vertex 16.5 22.9054 2.46963
      vertex 23.25 22.9054 2.46963
      vertex 16.5 24.3742 3.77094
    endloop
  endfacet
  facet normal -7.87381e-017 -0.935016 0.354605
    outer loop
      vertex 23.25 24.3742 3.77094
      vertex 23.25 25.0701 5.6058
      vertex 16.5 25.0701 5.6058
    endloop
  endfacet
  facet normal -7.87381e-017 -0.935016 0.354605
    outer loop
      vertex 16.5 24.3742 3.77094
      vertex 23.25 24.3742 3.77094
      vertex 16.5 25.0701 5.6058
    endloop
  endfacet
  facet normal 2.67644e-017 -0.992709 -0.120536
    outer loop
      vertex 16.5 25.0701 5.6058
      vertex 23.25 25.0701 5.6058
      vertex 23.25 24.8336 7.55388
    endloop
  endfacet
  facet normal 2.67644e-017 -0.992709 -0.120536
    outer loop
      vertex 16.5 24.8336 7.55388
      vertex 16.5 25.0701 5.6058
      vertex 23.25 24.8336 7.55388
    endloop
  endfacet
  facet normal 1.26136e-016 -0.822984 -0.568065
    outer loop
      vertex 16.5 24.8336 7.55388
      vertex 23.25 24.8336 7.55388
      vertex 23.25 23.7188 9.16889
    endloop
  endfacet
  facet normal 1.26136e-016 -0.822984 -0.568065
    outer loop
      vertex 16.5 23.7188 9.16889
      vertex 16.5 24.8336 7.55388
      vertex 23.25 23.7188 9.16889
    endloop
  endfacet
  facet normal 1.96611e-016 -0.464723 -0.885456
    outer loop
      vertex 23.25 23.7188 9.16889
      vertex 23.25 21.9812 10.0809
      vertex 16.5 23.7188 9.16889
    endloop
  endfacet
  facet normal 1.96611e-016 -0.464723 -0.885456
    outer loop
      vertex 16.5 23.7188 9.16889
      vertex 23.25 21.9812 10.0809
      vertex 16.5 21.9812 10.0809
    endloop
  endfacet
  facet normal 2.22045e-016 0 -1
    outer loop
      vertex 23.25 21.9812 10.0809
      vertex 23.25 20.0188 10.0809
      vertex 16.5 21.9812 10.0809
    endloop
  endfacet
  facet normal 2.22045e-016 0 -1
    outer loop
      vertex 16.5 21.9812 10.0809
      vertex 23.25 20.0188 10.0809
      vertex 16.5 20.0188 10.0809
    endloop
  endfacet
  facet normal 1.96611e-016 0.464723 -0.885456
    outer loop
      vertex 23.25 20.0188 10.0809
      vertex 23.25 18.2812 9.16889
      vertex 16.5 20.0188 10.0809
    endloop
  endfacet
  facet normal 1.96611e-016 0.464723 -0.885456
    outer loop
      vertex 16.5 20.0188 10.0809
      vertex 23.25 18.2812 9.16889
      vertex 16.5 18.2812 9.16889
    endloop
  endfacet
  facet normal 1.26136e-016 0.822984 -0.568065
    outer loop
      vertex 23.25 18.2812 9.16889
      vertex 23.25 17.1664 7.55388
      vertex 16.5 18.2812 9.16889
    endloop
  endfacet
  facet normal 1.26136e-016 0.822984 -0.568065
    outer loop
      vertex 16.5 18.2812 9.16889
      vertex 23.25 17.1664 7.55388
      vertex 16.5 17.1664 7.55388
    endloop
  endfacet
  facet normal -0.885456 -0.464723 0
    outer loop
      vertex 0.116233 -6.95726 0
      vertex 1.00596 -8.65249 0
      vertex 0.116233 -6.95726 5
    endloop
  endfacet
  facet normal -0.885456 -0.464723 0
    outer loop
      vertex 0.116233 -6.95726 5
      vertex 1.00596 -8.65249 0
      vertex 1.00596 -8.65249 5
    endloop
  endfacet
  facet normal 0 0 -1
    outer loop
      vertex 0.116233 -6.95726 0
      vertex 0.116233 -5.04274 0
      vertex 1.00596 -8.65249 0
    endloop
  endfacet
  facet normal 0 0 -1
    outer loop
      vertex 1.00596 -8.65249 0
      vertex 0.116233 -5.04274 0
      vertex 1.00596 -3.34751 0
    endloop
  endfacet
  facet normal 0 0 -1
    outer loop
      vertex 1.00596 -8.65249 0
      vertex 1.00596 -3.34751 0
      vertex 2.58158 -2.25994 0
    endloop
  endfacet
  facet normal 0 0 -1
    outer loop
      vertex 1.00596 -8.65249 0
      vertex 2.58158 -2.25994 0
      vertex 4.48215 -2.02917 0
    endloop
  endfacet
  facet normal 0 0 -1
    outer loop
      vertex 6.37168 -4.27997 0
      vertex 4.48215 -2.02917 0
      vertex 20.4821 -2.02917 0
    endloop
  endfacet
  facet normal 0 0 -1
    outer loop
      vertex 20.3717 -4.27997 0
      vertex 22.2723 -2.70806 0
      vertex 23.5418 -4.14111 0
    endloop
  endfacet
  facet normal 0 0 -1
    outer loop
      vertex 21.2 -6 0
      vertex 23.5418 -4.14111 0
      vertex 24 -6 0
    endloop
  endfacet
  facet normal 0 0 -1
    outer loop
      vertex 18.5105 -8.14484 0
      vertex 23.5418 -7.85889 0
      vertex 22.2723 -9.29193 0
    endloop
  endfacet
  facet normal 0 0 -1
    outer loop
      vertex 1.00596 -8.65249 0
      vertex 22.2723 -9.29193 0
      vertex 20.4821 -9.97083 0
    endloop
  endfacet
  facet normal 0 0 -1
    outer loop
      vertex 1.00596 -8.65249 0
      vertex 20.4821 -9.97083 0
      vertex 4.48215 -9.97083 0
    endloop
  endfacet
  facet normal 0 0 -1
    outer loop
      vertex 1.00596 -8.65249 0
      vertex 4.48215 -9.97083 0
      vertex 2.58158 -9.74006 0
    endloop
  endfacet
  facet normal 0 0 -1
    outer loop
      vertex 1.00596 -8.65249 0
      vertex 4.48215 -2.02917 0
      vertex 3.01787 -5.04546 0
    endloop
  endfacet
  facet normal 0 0 -1
    outer loop
      vertex 17.0179 -6.95454 0
      vertex 4.51045 -8.14484 0
      vertex 6.37168 -7.72003 0
    endloop
  endfacet
  facet normal 0 0 -1
    outer loop
      vertex 1.00596 -8.65249 0
      vertex 3.01787 -5.04546 0
      vertex 3.01787 -6.95454 0
    endloop
  endfacet
  facet normal 0 0 -1
    outer loop
      vertex 17.0179 -6.95454 0
      vertex 6.37168 -7.72003 0
      vertex 17.0179 -5.04546 0
    endloop
  endfacet
  facet normal 0 0 -1
    outer loop
      vertex 20.3717 -7.72003 0
      vertex 23.5418 -7.85889 0
      vertex 18.5105 -8.14484 0
    endloop
  endfacet
  facet normal 0 0 -1
    outer loop
      vertex 7.2 -6 0
      vertex 18.5105 -3.85516 0
      vertex 17.0179 -5.04546 0
    endloop
  endfacet
  facet normal 0 0 -1
    outer loop
      vertex 7.2 -6 0
      vertex 22.2723 -2.70806 0
      vertex 18.5105 -3.85516 0
    endloop
  endfacet
  facet normal 0 0 -1
    outer loop
      vertex 4.51045 -3.85516 0
      vertex 4.48215 -2.02917 0
      vertex 6.37168 -4.27997 0
    endloop
  endfacet
  facet normal 0 0 -1
    outer loop
      vertex 17.0179 -6.95454 0
      vertex 1.00596 -8.65249 0
      vertex 4.51045 -8.14484 0
    endloop
  endfacet
  facet normal 0 0 -1
    outer loop
      vertex 3.01787 -5.04546 0
      vertex 4.48215 -2.02917 0
      vertex 4.51045 -3.85516 0
    endloop
  endfacet
  facet normal 0 0 -1
    outer loop
      vertex 7.2 -6 0
      vertex 17.0179 -5.04546 0
      vertex 6.37168 -7.72003 0
    endloop
  endfacet
  facet normal 0 0 -1
    outer loop
      vertex 18.5105 -8.14484 0
      vertex 1.00596 -8.65249 0
      vertex 17.0179 -6.95454 0
    endloop
  endfacet
  facet normal 0 0 -1
    outer loop
      vertex 21.2 -6 0
      vertex 24 -6 0
      vertex 23.5418 -7.85889 0
    endloop
  endfacet
  facet normal 0 0 -1
    outer loop
      vertex 1.00596 -8.65249 0
      vertex 18.5105 -8.14484 0
      vertex 22.2723 -9.29193 0
    endloop
  endfacet
  facet normal 0 0 -1
    outer loop
      vertex 21.2 -6 0
      vertex 23.5418 -7.85889 0
      vertex 20.3717 -7.72003 0
    endloop
  endfacet
  facet normal 0 0 -1
    outer loop
      vertex 18.5105 -3.85516 0
      vertex 22.2723 -2.70806 0
      vertex 20.3717 -4.27997 0
    endloop
  endfacet
  facet normal 0 0 -1
    outer loop
      vertex 20.3717 -4.27997 0
      vertex 23.5418 -4.14111 0
      vertex 21.2 -6 0
    endloop
  endfacet
  facet normal 0 0 -1
    outer loop
      vertex 4.51045 -8.14484 0
      vertex 1.00596 -8.65249 0
      vertex 3.01787 -6.95454 0
    endloop
  endfacet
  facet normal 0 0 -1
    outer loop
      vertex 7.2 -6 0
      vertex 20.4821 -2.02917 0
      vertex 22.2723 -2.70806 0
    endloop
  endfacet
  facet normal 0 0 -1
    outer loop
      vertex 6.37168 -4.27997 0
      vertex 20.4821 -2.02917 0
      vertex 7.2 -6 0
    endloop
  endfacet
  facet normal -1 0 0
    outer loop
      vertex 0.116233 -6.95726 0
      vertex 0.116233 -6.95726 5
      vertex 0.116233 -5.04274 0
    endloop
  endfacet
  facet normal -1 0 0
    outer loop
      vertex 0.116233 -5.04274 0
      vertex 0.116233 -6.95726 5
      vertex 0.116233 -5.04274 5
    endloop
  endfacet
  facet normal 0 0 1
    outer loop
      vertex 0.116233 -5.04274 5
      vertex 0.116233 -6.95726 5
      vertex 1.00596 -8.65249 5
    endloop
  endfacet
  facet normal 0 0 1
    outer loop
      vertex 4.48215 -9.97083 5
      vertex 0.116233 -5.04274 5
      vertex 2.58158 -9.74006 5
    endloop
  endfacet
  facet normal 0 0 1
    outer loop
      vertex 2.58158 -9.74006 5
      vertex 0.116233 -5.04274 5
      vertex 1.00596 -8.65249 5
    endloop
  endfacet
  facet normal 0 0 1
    outer loop
      vertex 2.57295 -7.76336 5
      vertex 0.116233 -5.04274 5
      vertex 4.48215 -9.97083 5
    endloop
  endfacet
  facet normal 0 0 1
    outer loop
      vertex 2.58158 -2.25994 5
      vertex 0.116233 -5.04274 5
      vertex 4.48215 -2.02917 5
    endloop
  endfacet
  facet normal 0 0 1
    outer loop
      vertex 1.00596 -3.34751 5
      vertex 0.116233 -5.04274 5
      vertex 2.58158 -2.25994 5
    endloop
  endfacet
  facet normal 0 0 1
    outer loop
      vertex 4.07295 -8.85317 5
      vertex 2.57295 -7.76336 5
      vertex 4.48215 -9.97083 5
    endloop
  endfacet
  facet normal 0 0 1
    outer loop
      vertex 2 -6 5
      vertex 0.116233 -5.04274 5
      vertex 2.57295 -7.76336 5
    endloop
  endfacet
  facet normal 0 0 1
    outer loop
      vertex 16.5729 -4.23664 5
      vertex 18.0729 -3.14683 5
      vertex 7.42705 -4.23664 5
    endloop
  endfacet
  facet normal 0 0 1
    outer loop
      vertex 4.48215 -2.02917 5
      vertex 0.116233 -5.04274 5
      vertex 2.57295 -4.23664 5
    endloop
  endfacet
  facet normal 0 0 1
    outer loop
      vertex 4.48215 -2.02917 5
      vertex 4.07295 -3.14683 5
      vertex 20.4821 -2.02917 5
    endloop
  endfacet
  facet normal 0 0 1
    outer loop
      vertex 4.48215 -2.02917 5
      vertex 2.57295 -4.23664 5
      vertex 4.07295 -3.14683 5
    endloop
  endfacet
  facet normal 0 0 1
    outer loop
      vertex 4.07295 -3.14683 5
      vertex 5.92705 -3.14683 5
      vertex 20.4821 -2.02917 5
    endloop
  endfacet
  facet normal 0 0 1
    outer loop
      vertex 20.4821 -2.02917 5
      vertex 7.42705 -4.23664 5
      vertex 22.2723 -2.70806 5
    endloop
  endfacet
  facet normal 0 0 1
    outer loop
      vertex 5.92705 -3.14683 5
      vertex 7.42705 -4.23664 5
      vertex 20.4821 -2.02917 5
    endloop
  endfacet
  facet normal 0 0 1
    outer loop
      vertex 20.4821 -9.97083 5
      vertex 5.92705 -8.85317 5
      vertex 4.48215 -9.97083 5
    endloop
  endfacet
  facet normal 0 0 1
    outer loop
      vertex 5.92705 -8.85317 5
      vertex 4.07295 -8.85317 5
      vertex 4.48215 -9.97083 5
    endloop
  endfacet
  facet normal 0 0 1
    outer loop
      vertex 24 -6 5
      vertex 22 -6 5
      vertex 23.5418 -7.85889 5
    endloop
  endfacet
  facet normal 0 0 1
    outer loop
      vertex 21.4271 -4.23664 5
      vertex 22 -6 5
      vertex 24 -6 5
    endloop
  endfacet
  facet normal 0 0 1
    outer loop
      vertex 7.42705 -4.23664 5
      vertex 18.0729 -3.14683 5
      vertex 22.2723 -2.70806 5
    endloop
  endfacet
  facet normal 0 0 1
    outer loop
      vertex 19.9271 -3.14683 5
      vertex 21.4271 -4.23664 5
      vertex 23.5418 -4.14111 5
    endloop
  endfacet
  facet normal 0 0 1
    outer loop
      vertex 21.4271 -7.76336 5
      vertex 19.9271 -8.85317 5
      vertex 22.2723 -9.29193 5
    endloop
  endfacet
  facet normal 0 0 1
    outer loop
      vertex 23.5418 -4.14111 5
      vertex 21.4271 -4.23664 5
      vertex 24 -6 5
    endloop
  endfacet
  facet normal 0 0 1
    outer loop
      vertex 21.4271 -7.76336 5
      vertex 22.2723 -9.29193 5
      vertex 23.5418 -7.85889 5
    endloop
  endfacet
  facet normal 0 0 1
    outer loop
      vertex 16 -6 5
      vertex 16.5729 -4.23664 5
      vertex 7.42705 -4.23664 5
    endloop
  endfacet
  facet normal 0 0 1
    outer loop
      vertex 22.2723 -9.29193 5
      vertex 19.9271 -8.85317 5
      vertex 20.4821 -9.97083 5
    endloop
  endfacet
  facet normal 0 0 1
    outer loop
      vertex 19.9271 -8.85317 5
      vertex 18.0729 -8.85317 5
      vertex 20.4821 -9.97083 5
    endloop
  endfacet
  facet normal 0 0 1
    outer loop
      vertex 18.0729 -3.14683 5
      vertex 19.9271 -3.14683 5
      vertex 22.2723 -2.70806 5
    endloop
  endfacet
  facet normal 0 0 1
    outer loop
      vertex 19.9271 -3.14683 5
      vertex 23.5418 -4.14111 5
      vertex 22.2723 -2.70806 5
    endloop
  endfacet
  facet normal 0 0 1
    outer loop
      vertex 22 -6 5
      vertex 21.4271 -7.76336 5
      vertex 23.5418 -7.85889 5
    endloop
  endfacet
  facet normal 0 0 1
    outer loop
      vertex 16.5729 -7.76336 5
      vertex 16 -6 5
      vertex 7.42705 -4.23664 5
    endloop
  endfacet
  facet normal 0 0 1
    outer loop
      vertex 18.0729 -8.85317 5
      vertex 16.5729 -7.76336 5
      vertex 8 -6 5
    endloop
  endfacet
  facet normal 0 0 1
    outer loop
      vertex 8 -6 5
      vertex 7.42705 -7.76336 5
      vertex 20.4821 -9.97083 5
    endloop
  endfacet
  facet normal 0 0 1
    outer loop
      vertex 16.5729 -7.76336 5
      vertex 7.42705 -4.23664 5
      vertex 8 -6 5
    endloop
  endfacet
  facet normal 0 0 1
    outer loop
      vertex 8 -6 5
      vertex 20.4821 -9.97083 5
      vertex 18.0729 -8.85317 5
    endloop
  endfacet
  facet normal 0 0 1
    outer loop
      vertex 7.42705 -7.76336 5
      vertex 5.92705 -8.85317 5
      vertex 20.4821 -9.97083 5
    endloop
  endfacet
  facet normal 0 0 1
    outer loop
      vertex 2 -6 5
      vertex 2.57295 -4.23664 5
      vertex 0.116233 -5.04274 5
    endloop
  endfacet
  facet normal -0.568065 -0.822984 0
    outer loop
      vertex 1.00596 -8.65249 5
      vertex 1.00596 -8.65249 0
      vertex 2.58158 -9.74006 0
    endloop
  endfacet
  facet normal -0.568065 -0.822984 0
    outer loop
      vertex 2.58158 -9.74006 5
      vertex 1.00596 -8.65249 5
      vertex 2.58158 -9.74006 0
    endloop
  endfacet
  facet normal -0.120536 -0.992709 0
    outer loop
      vertex 2.58158 -9.74006 5
      vertex 2.58158 -9.74006 0
      vertex 4.48215 -9.97083 0
    endloop
  endfacet
  facet normal -0.120536 -0.992709 0
    outer loop
      vertex 4.48215 -9.97083 5
      vertex 2.58158 -9.74006 5
      vertex 4.48215 -9.97083 0
    endloop
  endfacet
  facet normal 0 -1 0
    outer loop
      vertex 4.48215 -9.97083 5
      vertex 4.48215 -9.97083 0
      vertex 20.4821 -9.97083 0
    endloop
  endfacet
  facet normal 0 -1 0
    outer loop
      vertex 20.4821 -9.97083 5
      vertex 4.48215 -9.97083 5
      vertex 20.4821 -9.97083 0
    endloop
  endfacet
  facet normal 0.354605 -0.935016 0
    outer loop
      vertex 20.4821 -9.97083 5
      vertex 20.4821 -9.97083 0
      vertex 22.2723 -9.29193 0
    endloop
  endfacet
  facet normal 0.354605 -0.935016 0
    outer loop
      vertex 22.2723 -9.29193 5
      vertex 20.4821 -9.97083 5
      vertex 22.2723 -9.29193 0
    endloop
  endfacet
  facet normal 0.748511 -0.663123 0
    outer loop
      vertex 22.2723 -9.29193 5
      vertex 22.2723 -9.29193 0
      vertex 23.5418 -7.85889 0
    endloop
  endfacet
  facet normal 0.748511 -0.663123 0
    outer loop
      vertex 23.5418 -7.85889 5
      vertex 22.2723 -9.29193 5
      vertex 23.5418 -7.85889 0
    endloop
  endfacet
  facet normal 0.970942 -0.239316 0
    outer loop
      vertex 23.5418 -7.85889 5
      vertex 23.5418 -7.85889 0
      vertex 24 -6 0
    endloop
  endfacet
  facet normal 0.970942 -0.239316 0
    outer loop
      vertex 24 -6 5
      vertex 23.5418 -7.85889 5
      vertex 24 -6 0
    endloop
  endfacet
  facet normal 0.970942 0.239316 0
    outer loop
      vertex 24 -6 0
      vertex 23.5418 -4.14111 0
      vertex 23.5418 -4.14111 5
    endloop
  endfacet
  facet normal 0.970942 0.239316 0
    outer loop
      vertex 24 -6 5
      vertex 24 -6 0
      vertex 23.5418 -4.14111 5
    endloop
  endfacet
  facet normal 0.748511 0.663123 0
    outer loop
      vertex 23.5418 -4.14111 0
      vertex 22.2723 -2.70806 0
      vertex 22.2723 -2.70806 5
    endloop
  endfacet
  facet normal 0.748511 0.663123 0
    outer loop
      vertex 23.5418 -4.14111 5
      vertex 23.5418 -4.14111 0
      vertex 22.2723 -2.70806 5
    endloop
  endfacet
  facet normal 0.354605 0.935016 0
    outer loop
      vertex 20.4821 -2.02917 0
      vertex 20.4821 -2.02917 5
      vertex 22.2723 -2.70806 0
    endloop
  endfacet
  facet normal 0.354605 0.935016 0
    outer loop
      vertex 22.2723 -2.70806 0
      vertex 20.4821 -2.02917 5
      vertex 22.2723 -2.70806 5
    endloop
  endfacet
  facet normal 0 1 0
    outer loop
      vertex 4.48215 -2.02917 0
      vertex 4.48215 -2.02917 5
      vertex 20.4821 -2.02917 0
    endloop
  endfacet
  facet normal 0 1 0
    outer loop
      vertex 20.4821 -2.02917 0
      vertex 4.48215 -2.02917 5
      vertex 20.4821 -2.02917 5
    endloop
  endfacet
  facet normal -0.120536 0.992709 0
    outer loop
      vertex 2.58158 -2.25994 0
      vertex 2.58158 -2.25994 5
      vertex 4.48215 -2.02917 0
    endloop
  endfacet
  facet normal -0.120536 0.992709 0
    outer loop
      vertex 4.48215 -2.02917 0
      vertex 2.58158 -2.25994 5
      vertex 4.48215 -2.02917 5
    endloop
  endfacet
  facet normal -0.568065 0.822984 0
    outer loop
      vertex 1.00596 -3.34751 0
      vertex 1.00596 -3.34751 5
      vertex 2.58158 -2.25994 0
    endloop
  endfacet
  facet normal -0.568065 0.822984 0
    outer loop
      vertex 2.58158 -2.25994 0
      vertex 1.00596 -3.34751 5
      vertex 2.58158 -2.25994 5
    endloop
  endfacet
  facet normal -0.885456 0.464723 0
    outer loop
      vertex 0.116233 -5.04274 0
      vertex 0.116233 -5.04274 5
      vertex 1.00596 -3.34751 0
    endloop
  endfacet
  facet normal -0.885456 0.464723 0
    outer loop
      vertex 1.00596 -3.34751 0
      vertex 0.116233 -5.04274 5
      vertex 1.00596 -3.34751 5
    endloop
  endfacet
  facet normal 1 0 0
    outer loop
      vertex 3.01787 -5.04546 0
      vertex 3.01787 -5.04546 2
      vertex 3.01787 -6.95454 2
    endloop
  endfacet
  facet normal 1 0 0
    outer loop
      vertex 3.01787 -6.95454 0
      vertex 3.01787 -5.04546 0
      vertex 3.01787 -6.95454 2
    endloop
  endfacet
  facet normal 0.62349 -0.781832 0
    outer loop
      vertex 4.51045 -3.85516 0
      vertex 4.51045 -3.85516 2
      vertex 3.01787 -5.04546 2
    endloop
  endfacet
  facet normal 0.62349 -0.781832 0
    outer loop
      vertex 3.01787 -5.04546 0
      vertex 4.51045 -3.85516 0
      vertex 3.01787 -5.04546 2
    endloop
  endfacet
  facet normal -0.222521 -0.974928 0
    outer loop
      vertex 6.37168 -4.27997 0
      vertex 6.37168 -4.27997 2
      vertex 4.51045 -3.85516 2
    endloop
  endfacet
  facet normal -0.222521 -0.974928 0
    outer loop
      vertex 4.51045 -3.85516 0
      vertex 6.37168 -4.27997 0
      vertex 4.51045 -3.85516 2
    endloop
  endfacet
  facet normal -0.900969 -0.433884 0
    outer loop
      vertex 7.2 -6 2
      vertex 6.37168 -4.27997 2
      vertex 7.2 -6 0
    endloop
  endfacet
  facet normal -0.900969 -0.433884 0
    outer loop
      vertex 7.2 -6 0
      vertex 6.37168 -4.27997 2
      vertex 6.37168 -4.27997 0
    endloop
  endfacet
  facet normal -0.900969 0.433884 0
    outer loop
      vertex 7.2 -6 2
      vertex 7.2 -6 0
      vertex 6.37168 -7.72003 2
    endloop
  endfacet
  facet normal -0.900969 0.433884 0
    outer loop
      vertex 6.37168 -7.72003 2
      vertex 7.2 -6 0
      vertex 6.37168 -7.72003 0
    endloop
  endfacet
  facet normal -0.222521 0.974928 0
    outer loop
      vertex 6.37168 -7.72003 2
      vertex 6.37168 -7.72003 0
      vertex 4.51045 -8.14484 2
    endloop
  endfacet
  facet normal -0.222521 0.974928 0
    outer loop
      vertex 4.51045 -8.14484 2
      vertex 6.37168 -7.72003 0
      vertex 4.51045 -8.14484 0
    endloop
  endfacet
  facet normal 0.62349 0.781832 0
    outer loop
      vertex 4.51045 -8.14484 2
      vertex 4.51045 -8.14484 0
      vertex 3.01787 -6.95454 2
    endloop
  endfacet
  facet normal 0.62349 0.781832 0
    outer loop
      vertex 3.01787 -6.95454 2
      vertex 4.51045 -8.14484 0
      vertex 3.01787 -6.95454 0
    endloop
  endfacet
  facet normal 0.62349 -0.781832 0
    outer loop
      vertex 18.5105 -3.85516 0
      vertex 18.5105 -3.85516 2
      vertex 17.0179 -5.04546 2
    endloop
  endfacet
  facet normal 0.62349 -0.781832 0
    outer loop
      vertex 17.0179 -5.04546 0
      vertex 18.5105 -3.85516 0
      vertex 17.0179 -5.04546 2
    endloop
  endfacet
  facet normal 1 0 0
    outer loop
      vertex 17.0179 -5.04546 0
      vertex 17.0179 -5.04546 2
      vertex 17.0179 -6.95454 2
    endloop
  endfacet
  facet normal 1 0 0
    outer loop
      vertex 17.0179 -6.95454 0
      vertex 17.0179 -5.04546 0
      vertex 17.0179 -6.95454 2
    endloop
  endfacet
  facet normal -0.222521 -0.974928 0
    outer loop
      vertex 20.3717 -4.27997 0
      vertex 20.3717 -4.27997 2
      vertex 18.5105 -3.85516 2
    endloop
  endfacet
  facet normal -0.222521 -0.974928 0
    outer loop
      vertex 18.5105 -3.85516 0
      vertex 20.3717 -4.27997 0
      vertex 18.5105 -3.85516 2
    endloop
  endfacet
  facet normal -0.900969 -0.433884 0
    outer loop
      vertex 21.2 -6 2
      vertex 20.3717 -4.27997 2
      vertex 21.2 -6 0
    endloop
  endfacet
  facet normal -0.900969 -0.433884 0
    outer loop
      vertex 21.2 -6 0
      vertex 20.3717 -4.27997 2
      vertex 20.3717 -4.27997 0
    endloop
  endfacet
  facet normal -0.900969 0.433884 0
    outer loop
      vertex 21.2 -6 2
      vertex 21.2 -6 0
      vertex 20.3717 -7.72003 2
    endloop
  endfacet
  facet normal -0.900969 0.433884 0
    outer loop
      vertex 20.3717 -7.72003 2
      vertex 21.2 -6 0
      vertex 20.3717 -7.72003 0
    endloop
  endfacet
  facet normal -0.222521 0.974928 0
    outer loop
      vertex 20.3717 -7.72003 2
      vertex 20.3717 -7.72003 0
      vertex 18.5105 -8.14484 2
    endloop
  endfacet
  facet normal -0.222521 0.974928 0
    outer loop
      vertex 18.5105 -8.14484 2
      vertex 20.3717 -7.72003 0
      vertex 18.5105 -8.14484 0
    endloop
  endfacet
  facet normal 0.62349 0.781832 0
    outer loop
      vertex 18.5105 -8.14484 2
      vertex 18.5105 -8.14484 0
      vertex 17.0179 -6.95454 2
    endloop
  endfacet
  facet normal 0.62349 0.781832 0
    outer loop
      vertex 17.0179 -6.95454 2
      vertex 18.5105 -8.14484 0
      vertex 17.0179 -6.95454 0
    endloop
  endfacet
  facet normal 0.951057 0.309017 0
    outer loop
      vertex 2 -6 5
      vertex 2.57295 -7.76336 5
      vertex 2.57295 -7.76336 2
    endloop
  endfacet
  facet normal 0.951057 0.309017 0
    outer loop
      vertex 2 -6 2
      vertex 2 -6 5
      vertex 2.57295 -7.76336 2
    endloop
  endfacet
  facet normal 0.587785 0.809017 0
    outer loop
      vertex 4.07295 -8.85317 5
      vertex 4.07295 -8.85317 2
      vertex 2.57295 -7.76336 5
    endloop
  endfacet
  facet normal 0.587785 0.809017 0
    outer loop
      vertex 2.57295 -7.76336 5
      vertex 4.07295 -8.85317 2
      vertex 2.57295 -7.76336 2
    endloop
  endfacet
  facet normal 0 1 0
    outer loop
      vertex 5.92705 -8.85317 5
      vertex 5.92705 -8.85317 2
      vertex 4.07295 -8.85317 5
    endloop
  endfacet
  facet normal 0 1 0
    outer loop
      vertex 4.07295 -8.85317 5
      vertex 5.92705 -8.85317 2
      vertex 4.07295 -8.85317 2
    endloop
  endfacet
  facet normal -0.587785 0.809017 0
    outer loop
      vertex 7.42705 -7.76336 5
      vertex 7.42705 -7.76336 2
      vertex 5.92705 -8.85317 5
    endloop
  endfacet
  facet normal -0.587785 0.809017 0
    outer loop
      vertex 5.92705 -8.85317 5
      vertex 7.42705 -7.76336 2
      vertex 5.92705 -8.85317 2
    endloop
  endfacet
  facet normal -0.951057 0.309017 0
    outer loop
      vertex 8 -6 5
      vertex 8 -6 2
      vertex 7.42705 -7.76336 5
    endloop
  endfacet
  facet normal -0.951057 0.309017 0
    outer loop
      vertex 7.42705 -7.76336 5
      vertex 8 -6 2
      vertex 7.42705 -7.76336 2
    endloop
  endfacet
  facet normal -0.951057 -0.309017 0
    outer loop
      vertex 8 -6 5
      vertex 7.42705 -4.23664 5
      vertex 8 -6 2
    endloop
  endfacet
  facet normal -0.951057 -0.309017 0
    outer loop
      vertex 8 -6 2
      vertex 7.42705 -4.23664 5
      vertex 7.42705 -4.23664 2
    endloop
  endfacet
  facet normal -0.587785 -0.809017 0
    outer loop
      vertex 7.42705 -4.23664 2
      vertex 7.42705 -4.23664 5
      vertex 5.92705 -3.14683 5
    endloop
  endfacet
  facet normal -0.587785 -0.809017 0
    outer loop
      vertex 5.92705 -3.14683 2
      vertex 7.42705 -4.23664 2
      vertex 5.92705 -3.14683 5
    endloop
  endfacet
  facet normal 0 -1 0
    outer loop
      vertex 5.92705 -3.14683 2
      vertex 5.92705 -3.14683 5
      vertex 4.07295 -3.14683 5
    endloop
  endfacet
  facet normal 0 -1 0
    outer loop
      vertex 4.07295 -3.14683 2
      vertex 5.92705 -3.14683 2
      vertex 4.07295 -3.14683 5
    endloop
  endfacet
  facet normal 0.587785 -0.809017 0
    outer loop
      vertex 4.07295 -3.14683 2
      vertex 4.07295 -3.14683 5
      vertex 2.57295 -4.23664 5
    endloop
  endfacet
  facet normal 0.587785 -0.809017 0
    outer loop
      vertex 2.57295 -4.23664 2
      vertex 4.07295 -3.14683 2
      vertex 2.57295 -4.23664 5
    endloop
  endfacet
  facet normal 0.951057 -0.309017 0
    outer loop
      vertex 2.57295 -4.23664 2
      vertex 2.57295 -4.23664 5
      vertex 2 -6 5
    endloop
  endfacet
  facet normal 0.951057 -0.309017 0
    outer loop
      vertex 2 -6 2
      vertex 2.57295 -4.23664 2
      vertex 2 -6 5
    endloop
  endfacet
  facet normal 0.587785 0.809017 0
    outer loop
      vertex 18.0729 -8.85317 5
      vertex 18.0729 -8.85317 2
      vertex 16.5729 -7.76336 5
    endloop
  endfacet
  facet normal 0.587785 0.809017 0
    outer loop
      vertex 16.5729 -7.76336 5
      vertex 18.0729 -8.85317 2
      vertex 16.5729 -7.76336 2
    endloop
  endfacet
  facet normal 0.951057 0.309017 0
    outer loop
      vertex 16 -6 5
      vertex 16.5729 -7.76336 5
      vertex 16.5729 -7.76336 2
    endloop
  endfacet
  facet normal 0.951057 0.309017 0
    outer loop
      vertex 16 -6 2
      vertex 16 -6 5
      vertex 16.5729 -7.76336 2
    endloop
  endfacet
  facet normal 0 1 0
    outer loop
      vertex 19.9271 -8.85317 5
      vertex 19.9271 -8.85317 2
      vertex 18.0729 -8.85317 5
    endloop
  endfacet
  facet normal 0 1 0
    outer loop
      vertex 18.0729 -8.85317 5
      vertex 19.9271 -8.85317 2
      vertex 18.0729 -8.85317 2
    endloop
  endfacet
  facet normal -0.587785 0.809017 0
    outer loop
      vertex 21.4271 -7.76336 5
      vertex 21.4271 -7.76336 2
      vertex 19.9271 -8.85317 5
    endloop
  endfacet
  facet normal -0.587785 0.809017 0
    outer loop
      vertex 19.9271 -8.85317 5
      vertex 21.4271 -7.76336 2
      vertex 19.9271 -8.85317 2
    endloop
  endfacet
  facet normal -0.951057 0.309017 0
    outer loop
      vertex 22 -6 5
      vertex 22 -6 2
      vertex 21.4271 -7.76336 5
    endloop
  endfacet
  facet normal -0.951057 0.309017 0
    outer loop
      vertex 21.4271 -7.76336 5
      vertex 22 -6 2
      vertex 21.4271 -7.76336 2
    endloop
  endfacet
  facet normal -0.951057 -0.309017 0
    outer loop
      vertex 22 -6 5
      vertex 21.4271 -4.23664 5
      vertex 22 -6 2
    endloop
  endfacet
  facet normal -0.951057 -0.309017 0
    outer loop
      vertex 22 -6 2
      vertex 21.4271 -4.23664 5
      vertex 21.4271 -4.23664 2
    endloop
  endfacet
  facet normal -0.587785 -0.809017 0
    outer loop
      vertex 21.4271 -4.23664 2
      vertex 21.4271 -4.23664 5
      vertex 19.9271 -3.14683 5
    endloop
  endfacet
  facet normal -0.587785 -0.809017 0
    outer loop
      vertex 19.9271 -3.14683 2
      vertex 21.4271 -4.23664 2
      vertex 19.9271 -3.14683 5
    endloop
  endfacet
  facet normal 0 -1 0
    outer loop
      vertex 19.9271 -3.14683 2
      vertex 19.9271 -3.14683 5
      vertex 18.0729 -3.14683 5
    endloop
  endfacet
  facet normal 0 -1 0
    outer loop
      vertex 18.0729 -3.14683 2
      vertex 19.9271 -3.14683 2
      vertex 18.0729 -3.14683 5
    endloop
  endfacet
  facet normal 0.587785 -0.809017 0
    outer loop
      vertex 18.0729 -3.14683 2
      vertex 18.0729 -3.14683 5
      vertex 16.5729 -4.23664 5
    endloop
  endfacet
  facet normal 0.587785 -0.809017 0
    outer loop
      vertex 16.5729 -4.23664 2
      vertex 18.0729 -3.14683 2
      vertex 16.5729 -4.23664 5
    endloop
  endfacet
  facet normal 0.951057 -0.309017 0
    outer loop
      vertex 16.5729 -4.23664 2
      vertex 16.5729 -4.23664 5
      vertex 16 -6 5
    endloop
  endfacet
  facet normal 0.951057 -0.309017 0
    outer loop
      vertex 16 -6 2
      vertex 16.5729 -4.23664 2
      vertex 16 -6 5
    endloop
  endfacet
  facet normal 0 0 1
    outer loop
      vertex 2.57295 -7.76336 2
      vertex 4.07295 -8.85317 2
      vertex 5.92705 -8.85317 2
    endloop
  endfacet
  facet normal 0 0 1
    outer loop
      vertex 4.51045 -8.14484 2
      vertex 2.57295 -7.76336 2
      vertex 5.92705 -8.85317 2
    endloop
  endfacet
  facet normal 0 0 1
    outer loop
      vertex 6.37168 -7.72003 2
      vertex 4.51045 -8.14484 2
      vertex 7.42705 -7.76336 2
    endloop
  endfacet
  facet normal 0 0 1
    outer loop
      vertex 7.2 -6 2
      vertex 6.37168 -7.72003 2
      vertex 8 -6 2
    endloop
  endfacet
  facet normal 0 0 1
    outer loop
      vertex 6.37168 -4.27997 2
      vertex 7.2 -6 2
      vertex 7.42705 -4.23664 2
    endloop
  endfacet
  facet normal 0 0 1
    outer loop
      vertex 2 -6 2
      vertex 2.57295 -7.76336 2
      vertex 2.57295 -4.23664 2
    endloop
  endfacet
  facet normal 0 0 1
    outer loop
      vertex 2.57295 -4.23664 2
      vertex 3.01787 -5.04546 2
      vertex 4.07295 -3.14683 2
    endloop
  endfacet
  facet normal 0 0 1
    outer loop
      vertex 2.57295 -4.23664 2
      vertex 2.57295 -7.76336 2
      vertex 3.01787 -5.04546 2
    endloop
  endfacet
  facet normal 0 0 1
    outer loop
      vertex 4.07295 -3.14683 2
      vertex 4.51045 -3.85516 2
      vertex 5.92705 -3.14683 2
    endloop
  endfacet
  facet normal 0 0 1
    outer loop
      vertex 5.92705 -3.14683 2
      vertex 6.37168 -4.27997 2
      vertex 7.42705 -4.23664 2
    endloop
  endfacet
  facet normal 0 0 1
    outer loop
      vertex 7.42705 -4.23664 2
      vertex 7.2 -6 2
      vertex 8 -6 2
    endloop
  endfacet
  facet normal 0 0 1
    outer loop
      vertex 8 -6 2
      vertex 6.37168 -7.72003 2
      vertex 7.42705 -7.76336 2
    endloop
  endfacet
  facet normal 0 0 1
    outer loop
      vertex 7.42705 -7.76336 2
      vertex 4.51045 -8.14484 2
      vertex 5.92705 -8.85317 2
    endloop
  endfacet
  facet normal 0 0 1
    outer loop
      vertex 4.51045 -3.85516 2
      vertex 6.37168 -4.27997 2
      vertex 5.92705 -3.14683 2
    endloop
  endfacet
  facet normal 0 0 1
    outer loop
      vertex 3.01787 -5.04546 2
      vertex 4.51045 -3.85516 2
      vertex 4.07295 -3.14683 2
    endloop
  endfacet
  facet normal 0 0 1
    outer loop
      vertex 3.01787 -6.95454 2
      vertex 3.01787 -5.04546 2
      vertex 2.57295 -7.76336 2
    endloop
  endfacet
  facet normal 0 0 1
    outer loop
      vertex 4.51045 -8.14484 2
      vertex 3.01787 -6.95454 2
      vertex 2.57295 -7.76336 2
    endloop
  endfacet
  facet normal 0 0 1
    outer loop
      vertex 16.5729 -7.76336 2
      vertex 18.0729 -8.85317 2
      vertex 19.9271 -8.85317 2
    endloop
  endfacet
  facet normal 0 0 1
    outer loop
      vertex 18.5105 -8.14484 2
      vertex 16.5729 -7.76336 2
      vertex 19.9271 -8.85317 2
    endloop
  endfacet
  facet normal 0 0 1
    outer loop
      vertex 20.3717 -7.72003 2
      vertex 18.5105 -8.14484 2
      vertex 21.4271 -7.76336 2
    endloop
  endfacet
  facet normal 0 0 1
    outer loop
      vertex 21.2 -6 2
      vertex 20.3717 -7.72003 2
      vertex 22 -6 2
    endloop
  endfacet
  facet normal 0 0 1
    outer loop
      vertex 20.3717 -4.27997 2
      vertex 21.2 -6 2
      vertex 21.4271 -4.23664 2
    endloop
  endfacet
  facet normal 0 0 1
    outer loop
      vertex 16 -6 2
      vertex 16.5729 -7.76336 2
      vertex 16.5729 -4.23664 2
    endloop
  endfacet
  facet normal 0 0 1
    outer loop
      vertex 16.5729 -4.23664 2
      vertex 17.0179 -5.04546 2
      vertex 18.0729 -3.14683 2
    endloop
  endfacet
  facet normal 0 0 1
    outer loop
      vertex 16.5729 -4.23664 2
      vertex 16.5729 -7.76336 2
      vertex 17.0179 -5.04546 2
    endloop
  endfacet
  facet normal 0 0 1
    outer loop
      vertex 18.0729 -3.14683 2
      vertex 18.5105 -3.85516 2
      vertex 19.9271 -3.14683 2
    endloop
  endfacet
  facet normal 0 0 1
    outer loop
      vertex 19.9271 -3.14683 2
      vertex 20.3717 -4.27997 2
      vertex 21.4271 -4.23664 2
    endloop
  endfacet
  facet normal 0 0 1
    outer loop
      vertex 21.4271 -4.23664 2
      vertex 21.2 -6 2
      vertex 22 -6 2
    endloop
  endfacet
  facet normal 0 0 1
    outer loop
      vertex 22 -6 2
      vertex 20.3717 -7.72003 2
      vertex 21.4271 -7.76336 2
    endloop
  endfacet
  facet normal 0 0 1
    outer loop
      vertex 21.4271 -7.76336 2
      vertex 18.5105 -8.14484 2
      vertex 19.9271 -8.85317 2
    endloop
  endfacet
  facet normal 0 0 1
    outer loop
      vertex 18.5105 -3.85516 2
      vertex 20.3717 -4.27997 2
      vertex 19.9271 -3.14683 2
    endloop
  endfacet
  facet normal 0 0 1
    outer loop
      vertex 17.0179 -5.04546 2
      vertex 18.5105 -3.85516 2
      vertex 18.0729 -3.14683 2
    endloop
  endfacet
  facet normal 0 0 1
    outer loop
      vertex 17.0179 -6.95454 2
      vertex 17.0179 -5.04546 2
      vertex 16.5729 -7.76336 2
    endloop
  endfacet
  facet normal 0 0 1
    outer loop
      vertex 18.5105 -8.14484 2
      vertex 17.0179 -6.95454 2
      vertex 16.5729 -7.76336 2
    endloop
  endfacet
endsolid OpenSCAD_Model
